<?xml version="1.0" encoding="UTF-8"?>
<svg width="24px" height="24px" viewBox="0 0 24 24" version="1.1" xmlns="http://www.w3.org/2000/svg" xmlns:xlink="http://www.w3.org/1999/xlink">
    <title>1. Atoms / Icons / Camera</title>
    <g id="Icons" stroke="none" stroke-width="1" fill="none" fill-rule="evenodd">
        <g id="1.-Atoms-/-Icons-/-Camera" fill="#272932">
            <path d="M1.51066667,15.71385 C1.91436758,15.71385 2.2481391,16.0284438 2.272,16.431439 L2.271,21.6921056 L7.53333333,21.6927723 C7.93632847,21.7166332 8.25092229,22.0504047 8.25092229,22.4541056 C8.25092229,22.8578066 7.93632847,23.1915781 7.53333333,23.215439 L1.50933333,23.215439 L1.50933333,23.215439 C1.09020439,23.213976 0.750796275,22.8745679 0.749333333,22.455439 L0.749333333,16.431439 C0.773194233,16.0284438 1.10696576,15.71385 1.51066667,15.71385 Z M22.4893333,15.71385 C22.8930342,15.71385 23.2268058,16.0284438 23.2506667,16.431439 L23.2506667,22.455439 C23.2492037,22.8745679 22.9097956,23.213976 22.4906667,23.215439 L16.4666667,23.215439 C16.0636715,23.1915781 15.7490777,22.8578066 15.7490777,22.4541056 C15.7490777,22.0504047 16.0636715,21.7166332 16.4666667,21.6927723 L21.727,21.6921056 L21.728,16.431439 C21.7518609,16.0284438 22.0856324,15.71385 22.4893333,15.71385 Z M23.24,11.2047723 C23.6597364,11.2047723 24,11.5450359 24,11.9647723 C24,12.3845087 23.6597364,12.7247723 23.24,12.7247723 L0.76,12.7247723 C0.34026359,12.7247723 3.19744231e-14,12.3845087 3.19744231e-14,11.9647723 C3.19744231e-14,11.5450359 0.34026359,11.2047723 0.76,11.2047723 L23.24,11.2047723 Z M7.53333333,0.714105645 C7.93632847,0.737966545 8.25092229,1.07173807 8.25092229,1.47543898 C8.25092229,1.87913989 7.93632847,2.21291141 7.53333333,2.23677231 L2.271,2.23610565 L2.272,7.49810565 C2.27053087,7.91827304 1.9295033,8.25810565 1.50933333,8.25810565 C1.09020439,8.2566427 0.750796275,7.91723459 0.749333333,7.49810565 L0.749333333,1.47410565 C0.761457101,1.26934307 0.853589717,1.08740284 0.994251551,0.957955845 C1.12345953,0.817942705 1.30503719,0.726201796 1.50933333,0.714105645 L7.53333333,0.714105645 Z M22.4906667,0.714105645 C22.6949628,0.726201796 22.8765405,0.817942705 23.005931,0.958063376 C23.1464103,1.08740284 23.2385429,1.26934307 23.2506667,1.47410565 L23.2506667,7.49810565 C23.2492037,7.91723459 22.9097956,8.2566427 22.4906667,8.25810565 C22.0704967,8.25810565 21.7294691,7.91827304 21.728,7.49810565 L21.727,2.23610565 L16.4666667,2.23677231 C16.0636715,2.21291141 15.7490777,1.87913989 15.7490777,1.47543898 C15.7490777,1.07173807 16.0636715,0.737966545 16.4666667,0.714105645 L22.4906667,0.714105645 Z" id="Combined-Shape"></path>
        </g>
    </g>
</svg>