<?xml version="1.0" encoding="UTF-8"?>
<svg width="24px" height="24px" viewBox="0 0 24 24" version="1.1" xmlns="http://www.w3.org/2000/svg" xmlns:xlink="http://www.w3.org/1999/xlink">
    <title>1. Atoms / Icons / Datas</title>
    <g id="Icons" stroke="none" stroke-width="1" fill="none" fill-rule="evenodd">
        <g id="1.-Atoms-/-Icons-/-Datas" fill="#272932">
            <path d="M2,3 L2,20 L24,20 L24,22 L1,22 C0.44771525,22 0,21.5522847 0,21 L0,21 L0,3 L2,3 Z M7,11 C7.55228475,11 8,11.4477153 8,12 L8,12 L8,19 L3,19 L3,12 C3,11.4477153 3.44771525,11 4,11 L4,11 Z M14.5,7 C15.0522847,7 15.5,7.44771525 15.5,8 L15.5,8 L15.5,19 L10.5,19 L10.5,8 C10.5,7.44771525 10.9477153,7 11.5,7 L11.5,7 Z M22,3 C22.5522847,3 23,3.44771525 23,4 L23,4 L23,19 L18,19 L18,4 C18,3.44771525 18.4477153,3 19,3 L19,3 Z" id="Combined-Shape"></path>
        </g>
    </g>
</svg>