<?xml version="1.0" encoding="UTF-8"?>
<svg width="24px" height="24px" viewBox="0 0 24 24" version="1.1" xmlns="http://www.w3.org/2000/svg" xmlns:xlink="http://www.w3.org/1999/xlink">
    <title>1. Atoms / Icons / Home</title>
    <g id="Icons" stroke="none" stroke-width="1" fill="none" fill-rule="evenodd">
        <g id="1.-Atoms-/-Icons-/-Home" fill="#272932">
            <path d="M11.4161497,0.264780764 L0.189256098,13.5173975 C-0.241512001,14.0062235 0.108487079,14.7937765 0.781562233,14.7937765 L2.02002052,14.7937765 L2.02002052,23.239604 C2.02002052,23.674116 2.3700196,24 2.77386469,24 L8.34692696,24 C8.77769506,24 9.10077113,23.646959 9.10077113,23.239604 L9.10077113,17.6724187 C9.10077113,17.2379066 9.45077021,16.9120226 9.85461531,16.9120226 L12.0084558,16.9120226 L14.1622963,16.9120226 C14.5930644,16.9120226 14.9161405,17.2650636 14.9161405,17.6724187 L14.9161405,23.239604 C14.9161405,23.674116 15.2661395,24 15.6699846,24 L21.2430469,24 C21.673815,24 21.9968911,23.646959 21.9968911,23.239604 L21.9968911,14.7937765 L23.2353494,14.7937765 C23.8815015,14.7937765 24.2315006,14.0333805 23.8276555,13.5173975 L12.6007619,0.264780764 C12.2776859,-0.0882602546 11.7392257,-0.0882602546 11.4161497,0.264780764 Z" id="Path"></path>
        </g>
    </g>
</svg>