<?xml version="1.0" encoding="UTF-8"?>
<svg width="24px" height="24px" viewBox="0 0 24 24" version="1.1" xmlns="http://www.w3.org/2000/svg" xmlns:xlink="http://www.w3.org/1999/xlink">
    <title>1. Atoms / Icons / Inventory</title>
    <g id="Icons" stroke="none" stroke-width="1" fill="none" fill-rule="evenodd">
        <g id="1.-Atoms-/-Icons-/-Inventory" fill="#272932">
            <path d="M12.0000462,15 L13.0411385,16.5567876 C13.5697846,17.3476961 14.5549846,17.6637374 15.4263692,17.3723113 L15.4263692,17.3723113 L21,15.5202328 L21,19.549219 C21,19.8464423 20.8093385,20.1099864 20.5267846,20.2037084 L20.5267846,20.2037084 L12.2224615,22.9636062 C12.2001231,22.9710138 12.1778308,22.9770871 12.1548462,22.9824703 C12.1034769,22.9939267 12.0521077,23 12.0000462,23 C11.9513538,23 11.9020154,22.9946169 11.8533231,22.9844947 L11.8533231,22.9844947 C11.8526308,22.9838046 11.8519385,22.9838046 11.8519385,22.9838046 C11.8269231,22.9784214 11.8019077,22.971658 11.7768923,22.9629161 L11.7768923,22.9629161 L3.47326154,20.2036624 C3.19066154,20.1099864 3,19.8464423 3,19.549219 L3,19.549219 L3,15.5201408 L8.57021538,17.370931 C9.44718462,17.6651177 10.4312308,17.3461777 10.9588154,16.5567876 L10.9588154,16.5567876 L12.0000462,15 Z M14.2274608,1.30467024 C14.4032408,1.04900733 14.7314572,0.937151965 15.0349707,1.0363719 L15.0349707,1.0363719 L23.5192856,3.76344295 C23.7273154,3.82998348 23.8907674,3.98778999 23.9621575,4.18886603 C24.0328913,4.38994207 24.0033603,4.61097118 23.8818612,4.78804899 L23.8818612,4.78804899 L21.2824733,8.50050172 L23.8818612,12.2129544 C24.0034072,12.3900777 24.0329382,12.6111068 23.9622043,12.8121828 C23.8908142,13.0132134 23.7273623,13.1710199 23.5193325,13.2376059 L23.5193325,13.2376059 L15.0350176,15.964677 C14.7367541,16.061988 14.4044127,15.9536323 14.2275077,15.6963786 L14.2275077,15.6963786 L12.0000234,12.4566637 L9.77253921,15.6963786 C9.59577484,15.9533596 9.26362094,16.0620334 8.96502931,15.964677 L8.96502931,15.964677 L0.480714391,13.2376059 C0.272684614,13.1710654 0.109232647,13.0132589 0.0378425275,12.8121828 C-0.0328913466,12.6111068 -0.00336030575,12.3900323 0.118185708,12.2129544 L0.118185708,12.2129544 L2.71752668,8.50054717 L0.118138834,4.78809444 C-0.00340718042,4.61097118 -0.0329382213,4.38994207 0.0377956528,4.18886603 C0.109185772,3.98783545 0.27263774,3.83002893 0.480667516,3.76344295 L0.480667516,3.76344295 L8.96498243,1.0363719 C9.26437094,0.936470197 9.59535297,1.04768924 9.77249234,1.30467024 L9.77249234,1.30467024 L11.9999766,4.5443852 Z M12.0000234,6.49187753 L5.78523932,8.50054717 L12.0000234,10.5092168 L18.2148075,8.50054717 L12.0000234,6.49187753 Z" id="Combined-Shape"></path>
        </g>
    </g>
</svg>