<svg xmlns="http://www.w3.org/2000/svg" width="24" height="25" viewBox="0 0 24 25">
    <path fill="#FFF" d="M21 4.97c.245 0 .45.177.492.41l.008.09v14c0 1.325-1.032 2.41-2.336 2.494L19 21.97H4.998c-1.325-.001-2.408-1.033-2.493-2.336L2.5 19.47v-10c0-.246.177-.45.41-.492L3 8.97h3.499l.001-3.5c0-.246.177-.45.41-.492L7 4.97h14zm-8.5 12.5h-2c-.276 0-.5.224-.5.5s.224.5.5.5h2c.276 0 .5-.224.5-.5s-.224-.5-.5-.5zm5 0h-2c-.276 0-.5.224-.5.5s.224.5.5.5h2c.276 0 .5-.224.5-.5s-.224-.5-.5-.5zm-5-3h-2c-.276 0-.5.224-.5.5s.224.5.5.5h2c.276 0 .5-.224.5-.5s-.224-.5-.5-.5zm5 0h-2c-.276 0-.5.224-.5.5s.224.5.5.5h2c.276 0 .5-.224.5-.5s-.224-.5-.5-.5zm-5-3h-2c-.276 0-.5.224-.5.5s.224.5.5.5h2c.276 0 .5-.224.5-.5s-.224-.5-.5-.5zm5 0h-2c-.276 0-.5.224-.5.5s.224.5.5.5h2c.276 0 .5-.224.5-.5s-.224-.5-.5-.5zm0-3h-7c-.276 0-.5.224-.5.5s.224.5.5.5h7c.276 0 .5-.224.5-.5s-.224-.5-.5-.5z"/>
</svg>
