<svg xmlns="http://www.w3.org/2000/svg" width="24" height="24" viewBox="0 0 24 24">
    <path fill-rule="evenodd" d="M21 3.947c.276 0 .5.224.5.5v14c0 1.38-1.12 2.5-2.5 2.5H4.998c-1.38-.001-2.498-1.12-2.498-2.5v-10c0-.276.224-.5.5-.5h3.499l.001-3.5c0-.246.177-.45.41-.492L7 3.947zm-.5 1h-13v13.5c0 .06-.002.119-.006.177l-.002.018-.005.064-.012.095-.01.065c-.007.044-.016.087-.026.13l-.009.04c-.01.044-.022.087-.035.13l-.013.04c-.085.27-.216.52-.383.742L19 19.947c.78 0 1.42-.595 1.493-1.356l.007-.144v-13.5zm-14.001 4H3.5v9.5c0 .78.595 1.42 1.356 1.493l.136.007.078-.002.049-.003.082-.008-.082.008c.052-.004.103-.01.153-.02l-.07.012c.04-.006.081-.013.121-.022l-.05.01c.042-.008.084-.017.125-.029l-.075.019c.054-.012.106-.026.157-.043l-.082.024c.043-.011.084-.025.125-.04l-.043.016c.038-.013.075-.027.111-.043l-.068.027c.05-.018.097-.039.144-.062l-.076.035c.033-.014.066-.03.098-.046l-.022.01c.494-.245.833-.754.833-1.343l-.004.083.004-.083-.001-9.5zm6.001 7.5c.276 0 .5.224.5.5s-.224.5-.5.5h-2c-.276 0-.5-.224-.5-.5s.224-.5.5-.5h2zm5 0c.276 0 .5.224.5.5s-.224.5-.5.5h-2c-.276 0-.5-.224-.5-.5s.224-.5.5-.5h2zm-5-3c.276 0 .5.224.5.5s-.224.5-.5.5h-2c-.276 0-.5-.224-.5-.5s.224-.5.5-.5h2zm5 0c.276 0 .5.224.5.5s-.224.5-.5.5h-2c-.276 0-.5-.224-.5-.5s.224-.5.5-.5h2zm-5-3c.276 0 .5.224.5.5s-.224.5-.5.5h-2c-.276 0-.5-.224-.5-.5s.224-.5.5-.5h2zm5 0c.276 0 .5.224.5.5s-.224.5-.5.5h-2c-.276 0-.5-.224-.5-.5s.224-.5.5-.5h2zm0-3c.276 0 .5.224.5.5s-.224.5-.5.5h-7c-.276 0-.5-.224-.5-.5s.224-.5.5-.5h7z"/>
</svg>
