<svg xmlns="http://www.w3.org/2000/svg" width="24" height="24" viewBox="0 0 24 24">
    <path fill-rule="evenodd" d="M15.736 2.87l.667 3.434-1.044-.13-.605-3.113L3.956 5.16 4.508 8H4h11c.552 0 1 .448 1 1l-.001 10.35 2.229.276L19.69 7.715 8.772 6.375l-.199 1.624H7.565l.215-1.746c.067-.549.566-.938 1.114-.871l10.918 1.34c.548.068.938.567.87 1.115l-1.462 11.91c-.067.549-.566.938-1.114.871l-2.107-.26L16 21c0 .552-.448 1-1 1H4c-.552 0-1-.448-1-1V9c0-.387.22-.723.542-.89l-.028.016-.54-2.776c-.105-.542.25-1.067.791-1.172L14.563 2.08c.542-.105 1.067.249 1.173.791zM15 9H4v12h11V9zm-1 1v8H5v-8h9zm-1 1H6v6h7v-6z"/>
</svg>
