<svg xmlns="http://www.w3.org/2000/svg" width="24" height="24" viewBox="0 0 24 24">
    <path fill="#FFF" d="M15 7.94c.552 0 1 .447 1 1v12c0 .552-.448 1-1 1H4c-.552 0-1-.448-1-1v-12c0-.553.448-1 1-1h11zM8.894 5.32l10.918 1.34c.548.068.938.567.87 1.115l-1.462 11.91c-.067.549-.566.939-1.114.872L17 20.42V7.939c0-.512-.386-.935-.883-.993L16 6.94H7.687l.093-.747c.067-.548.566-.938 1.114-.87zM14 9.94H5v8h9v-8zm1.736-7.13l.466 2.401L8.1 4.216c-.551-.067-1.056.292-1.18.817l-.02.115-.22 1.791H3.295l-.32-1.65c-.106-.541.248-1.066.79-1.172L14.563 2.02c.542-.106 1.067.248 1.173.79z"/>
</svg>
