<?xml version="1.0" encoding="UTF-8"?>
<svg width="24px" height="24px" viewBox="0 0 24 24" version="1.1" xmlns="http://www.w3.org/2000/svg" xmlns:xlink="http://www.w3.org/1999/xlink">
    <title>1. Atoms / Icons / Component</title>
    <g id="Icons" stroke="none" stroke-width="1" fill="none" fill-rule="evenodd">
        <g id="1.-Atoms-/-Icons-/-Component" fill="#272932">
            <path d="M12,12 L12,21 L12,21 C12,21.5128358 11.6139598,21.9355072 11.1166211,21.9932723 L11,22 L11,22 L3,22 L3,22 C2.44771525,22 2,21.5522847 2,21 L2,3 C2,2.44771525 2.44771525,2 3,2 L21,2 L21,2 C21.5522847,2 22,2.44771525 22,3 L22,11 L22,11 C22,11.5128358 21.6139598,11.9355072 21.1166211,11.9932723 L21,12 L21,12 L12,12 Z M20,4 L4,4 L4,20 L10,20 L10,11 C10,10.4477153 10.4477153,10 11,10 L20,10 L20,4 Z" id="Combined-Shape"></path>
        </g>
    </g>
</svg>