<?xml version="1.0" encoding="UTF-8"?>
<svg width="24px" height="24px" viewBox="0 0 24 24" version="1.1" xmlns="http://www.w3.org/2000/svg" xmlns:xlink="http://www.w3.org/1999/xlink">
    <title>1. Atoms / Icons / Documents / CSV</title>
    <g id="1.-Atoms-/-Icons-/-Documents-/-CSV" stroke="none" stroke-width="1" fill="none" fill-rule="evenodd">
        <path d="M14.585786,1 C15.1162238,1 15.6249404,1.2107172 16,1.58578578 L16,1.58578578 L19.4142281,5.00001153 C19.7892883,5.37508371 20,5.88378707 20,6.414214 L20,6.414214 L20,22 C20,22.5522847 19.5522847,23 19,23 L5,23 C4.44771525,23 4,22.5522847 4,22 L4,3 C4,1.8954305 4.8954305,1 6,1 L6,1 Z M12.666,3 L6,3 L6,17 L18,17 L18,9 L15,9 C13.7650299,9 12.754146,8.04057339 12.6720497,6.82642102 L12.6666667,6.66666667 L12.666,3 Z M9,15.5 C8.75454011,15.5 8.55039163,15.3231248 8.50805567,15.0898756 L8.5,15 L8.5,11 C8.5,10.7238576 8.72385763,10.5 9,10.5 L15,10.5 L15,10.5 C15.2454599,10.5 15.4496084,10.6768752 15.4919443,10.9101244 L15.5,11 L15.5,15 L15.5,15 C15.5,15.2454599 15.3231248,15.4496084 15.0898756,15.4919443 L15,15.5 L15,15.5 L9,15.5 L9,15.5 Z M11.5,13.5 L9.5,13.5 L9.5,14.5 L11.5,14.5 L11.5,13.5 Z M14.5,13.5 L12.5,13.5 L12.5,14.5 L14.5,14.5 L14.5,13.5 Z M11.5,11.5 L9.5,11.5 L9.5,12.5 L11.5,12.5 L11.5,11.5 Z M14.5,11.5 L12.5,11.5 L12.5,12.5 L14.5,12.5 L14.5,11.5 Z M14.666,3.081 L14.6666667,6.66666667 C14.6666667,6.82774985 14.7809272,6.9621458 14.9328217,6.99322786 L15,7 L18,7 L18,6.414214 L14.666,3.081 Z" id="Combined-Shape" fill="#272932"></path>
        <path d="M9.24725909,21.5397727 C9.43381212,21.5397727 9.60118902,21.5116004 9.74938977,21.4552557 C9.89759053,21.398911 10.0254314,21.3222064 10.1329125,21.225142 C10.2403936,21.1280777 10.3260943,21.0177557 10.3900148,20.8941761 C10.4539352,20.7705966 10.4939447,20.6420455 10.5100432,20.5085227 L10.5100432,20.5085227 L9.88788409,20.5056818 C9.87367955,20.5833333 9.84834811,20.6524621 9.81188977,20.7130682 C9.77543144,20.7736742 9.72974015,20.8250473 9.67481591,20.8671875 C9.61989167,20.9093277 9.55715492,20.9412879 9.48660568,20.9630682 C9.41605644,20.9848485 9.33958864,20.9957386 9.25720227,20.9957386 C9.11042197,20.9957386 8.98116061,20.9597538 8.86941818,20.8877841 C8.75767576,20.8158144 8.67079129,20.7092803 8.60876477,20.5681818 C8.54673826,20.4270833 8.515725,20.2528409 8.515725,20.0454545 C8.515725,19.84375 8.54650152,19.6721117 8.60805455,19.5305398 C8.66960758,19.3889678 8.7562553,19.2810133 8.86799773,19.2066761 C8.97974015,19.132339 9.11089545,19.0951705 9.26146364,19.0951705 C9.34479697,19.0951705 9.42221174,19.1070076 9.49370795,19.1306818 C9.56520417,19.1543561 9.62841439,19.188447 9.68333864,19.2329545 C9.73826288,19.2774621 9.78324394,19.3312027 9.81828182,19.3941761 C9.8533197,19.4571496 9.87652045,19.5288826 9.88788409,19.609375 L9.88788409,19.609375 L10.5100432,19.609375 C10.4901568,19.4408144 10.444939,19.2911932 10.3743898,19.1605114 C10.3038405,19.0298295 10.2126947,18.9192708 10.1009523,18.8288352 C9.98920985,18.7383996 9.8611322,18.6695076 9.71671932,18.6221591 C9.57230644,18.5748106 9.4158197,18.5511364 9.24725909,18.5511364 C8.99157727,18.5511364 8.76146364,18.6096117 8.55691818,18.7265625 C8.35237273,18.8435133 8.19044091,19.0132576 8.07112273,19.2357955 C7.95180455,19.4583333 7.89214545,19.7282197 7.89214545,20.0454545 C7.89214545,20.3617424 7.95109432,20.6311553 8.06899205,20.8536932 C8.18688977,21.0762311 8.34787462,21.2462121 8.55194659,21.3636364 C8.75601856,21.4810606 8.98778939,21.5397727 9.24725909,21.5397727 Z M12.0298629,21.5411932 C12.2666053,21.5411932 12.4690201,21.5054451 12.6371072,21.4339489 C12.8051943,21.3624527 12.9339822,21.2616004 13.0234708,21.131392 C13.1129595,21.0011837 13.1581773,20.8470644 13.1591242,20.6690341 C13.1581773,20.547822 13.1361602,20.4403409 13.0930731,20.3465909 C13.049986,20.2528409 12.9896167,20.1714015 12.9119652,20.1022727 C12.8343136,20.0331439 12.7424576,19.9749053 12.636397,19.9275568 C12.5303364,19.8802083 12.4138591,19.8423295 12.2869652,19.8139205 L12.2869652,19.8139205 L12.0256015,19.7514205 C11.9621545,19.7372159 11.9024955,19.7199337 11.8466242,19.6995739 C11.790753,19.679214 11.7415106,19.6550663 11.698897,19.6271307 C11.6562833,19.5991951 11.6229027,19.5658144 11.5987549,19.5269886 C11.5746072,19.4881629 11.5634803,19.4427083 11.5653742,19.390625 C11.5653742,19.328125 11.5836034,19.2722538 11.6200617,19.2230114 C11.6565201,19.1737689 11.7093136,19.1351799 11.7784424,19.1072443 C11.8475712,19.0793087 11.932325,19.0653409 12.0327038,19.0653409 C12.1804311,19.0653409 12.2973818,19.0970644 12.3835561,19.1605114 C12.4697303,19.2239583 12.5184992,19.3129735 12.5298629,19.4275568 L12.5298629,19.4275568 L13.1193515,19.4275568 C13.1165106,19.2542614 13.0701091,19.1017992 12.980147,18.9701705 C12.8901848,18.8385417 12.7644746,18.7357955 12.6030163,18.6619318 C12.441558,18.5880682 12.2528742,18.5511364 12.0369652,18.5511364 C11.8248439,18.5511364 11.63545,18.5880682 11.4687833,18.6619318 C11.3021167,18.7357955 11.1711981,18.8385417 11.0760277,18.9701705 C10.9808572,19.1017992 10.9337455,19.2556818 10.9346924,19.4318182 C10.9337455,19.6467803 11.0042947,19.8177083 11.1463402,19.9446023 C11.2883856,20.0714962 11.4820409,20.1647727 11.7273061,20.2244318 L11.7273061,20.2244318 L12.0440674,20.3039773 C12.150128,20.3295455 12.2398534,20.3579545 12.3132436,20.3892045 C12.3866337,20.4204545 12.4425049,20.4583333 12.4808572,20.5028409 C12.5192095,20.5473485 12.5383856,20.6022727 12.5383856,20.6676136 C12.5383856,20.7376894 12.5170788,20.7997159 12.4744652,20.8536932 C12.4318515,20.9076705 12.3719557,20.9498106 12.2947777,20.9801136 C12.2175996,21.0104167 12.1269273,21.0255682 12.0227606,21.0255682 C11.9167,21.0255682 11.8217663,21.009233 11.7379595,20.9765625 C11.6541527,20.943892 11.5873913,20.8951231 11.5376754,20.8302557 C11.4879595,20.7653883 11.4597871,20.6841856 11.4531583,20.5866477 L11.4531583,20.5866477 L10.8579879,20.5866477 C10.8627227,20.795928 10.9136223,20.9713542 11.0106867,21.1129261 C11.1077511,21.2544981 11.2431678,21.3612689 11.4169367,21.4332386 C11.5907057,21.5052083 11.7950144,21.5411932 12.0298629,21.5411932 Z M15.2101939,21.5 L16.2130348,18.5909091 L15.5312167,18.5909091 L14.8266712,20.8011364 L14.7996826,20.8011364 L14.0965576,18.5909091 L13.4133189,18.5909091 L14.4175803,21.5 L15.2101939,21.5 Z" id="CSV" fill="#FFFFFF" fill-rule="nonzero"></path>
    </g>
</svg>