<?xml version="1.0" encoding="UTF-8"?>
<svg width="24px" height="24px" viewBox="0 0 24 24" version="1.1" xmlns="http://www.w3.org/2000/svg" xmlns:xlink="http://www.w3.org/1999/xlink">
    <title>1. Atoms / Icons / Cut In Pieces</title>
    <g id="Icons" stroke="none" stroke-width="1" fill="none" fill-rule="evenodd">
        <g id="1.-Atoms-/-Icons-/-Cut-In-Pieces" fill="#272932">
            <path d="M21,8 C21.5522847,8 22,8.44771525 22,9 L22,21 C22,21.5128358 21.6139598,21.9355072 21.1166211,21.9932723 L21,22 L9,22 C8.44771525,22 8,21.5522847 8,21 L8,17 C8,16.4477153 8.44771525,16 9,16 L16,16 L16,9 C16,8.44771525 16.4477153,8 17,8 L21,8 Z M6,17 C6.55228475,17 7,17.4477153 7,18 L7,20 C7,20.5522847 6.55228475,21 6,21 L4,21 C3.44771525,21 3,20.5522847 3,20 L3,18 C3,17.4477153 3.44771525,17 4,17 L6,17 Z M20,10 L18,10 L18,17 C18,17.5128358 17.6139598,17.9355072 17.1166211,17.9932723 L17,18 L10,18 L10,20 L20,20 L20,10 Z M15,2 C15.5522847,2 16,2.44771525 16,3 L16,7 C16,7.51283584 15.6139598,7.93550716 15.1166211,7.99327227 L15,8 L8,8 L8,15 C8,15.5128358 7.61395981,15.9355072 7.11662113,15.9932723 L7,16 L3,16 C2.44771525,16 2,15.5522847 2,15 L2,3 C2,2.44771525 2.44771525,2 3,2 L15,2 Z M14,4 L4,4 L4,14 L6,14 L6,7 C6,6.44771525 6.44771525,6 7,6 L14,6 L14,4 Z M13,10 C13.5522847,10 14,10.4477153 14,11 L14,13 C14,13.5522847 13.5522847,14 13,14 L11,14 C10.4477153,14 10,13.5522847 10,13 L10,11 C10,10.4477153 10.4477153,10 11,10 L13,10 Z M20,3 C20.5522847,3 21,3.44771525 21,4 L21,6 C21,6.55228475 20.5522847,7 20,7 L18,7 C17.4477153,7 17,6.55228475 17,6 L17,4 C17,3.44771525 17.4477153,3 18,3 L20,3 Z" id="Combined-Shape"></path>
        </g>
    </g>
</svg>