<?xml version="1.0" encoding="UTF-8"?>
<svg width="24px" height="24px" viewBox="0 0 24 24" version="1.1" xmlns="http://www.w3.org/2000/svg" xmlns:xlink="http://www.w3.org/1999/xlink">
    <title>1. Atoms / Icons / Cutout</title>
    <g id="Icons" stroke="none" stroke-width="1" fill="none" fill-rule="evenodd">
        <g id="1.-Atoms-/-Icons-/-Cutout" fill="#272932">
            <path d="M21,16 C21.5522847,16 22,16.4477153 22,17 L22,21 C22,21.5522847 21.5522847,22 21,22 L17,22 C16.4477153,22 16,21.5522847 16,21 L16,17 C16,16.4477153 16.4477153,16 17,16 L21,16 Z M20,18 L18,18 L18,20 L20,20 L20,18 Z M15,2 C15.5522847,2 16,2.44771525 16,3 L16,7 C16,7.51283584 15.6139598,7.93550716 15.1166211,7.99327227 L15,8 L8,8 L8,15 C8,15.5128358 7.61395981,15.9355072 7.11662113,15.9932723 L7,16 L3,16 C2.44771525,16 2,15.5522847 2,15 L2,3 C2,2.44771525 2.44771525,2 3,2 L15,2 Z M14,4 L4,4 L4,14 L6,14 L6,7 C6,6.44771525 6.44771525,6 7,6 L14,6 L14,4 Z M13,10 C13.5522847,10 14,10.4477153 14,11 L14,13 C14,13.5522847 13.5522847,14 13,14 L11,14 C10.4477153,14 10,13.5522847 10,13 L10,11 C10,10.4477153 10.4477153,10 11,10 L13,10 Z" id="Combined-Shape"></path>
        </g>
    </g>
</svg>