<?xml version="1.0" encoding="UTF-8"?>
<svg width="24px" height="24px" viewBox="0 0 24 24" version="1.1" xmlns="http://www.w3.org/2000/svg" xmlns:xlink="http://www.w3.org/1999/xlink">
    <title>1. Atoms / Icons / Arrow / Dependency</title>
    <g id="Icons" stroke="none" stroke-width="1" fill="none" fill-rule="evenodd">
        <g id="1.-Atoms-/-Icons-/-Arrow-/-Dependency" fill="#272932">
            <path d="M21.2015981,0 C21.7843301,0 22.2567277,0.47239762 22.2567277,1.05512962 C22.2567277,1.58930061 21.8597825,2.03076009 21.3447729,2.10062714 L21.2015981,2.11025923 L15.8484763,2.11025923 C12.5353545,2.11025923 9.84777232,4.78851247 9.83266337,8.09808523 L9.83447156,8.1261362 L9.83447156,20.6287875 L14.033224,16.7995531 C14.4249941,16.3948123 15.1818043,16.3827294 15.5720269,16.7890018 C15.9682285,17.2014723 15.8267706,17.9091135 15.4840993,18.27815 L15.4840993,18.27815 L9.50476076,23.7241795 C9.01750134,24.0732333 8.5472647,24.1101833 8.05388552,23.7241795 L8.05388552,23.7241795 L2.07456458,18.27815 C1.71803587,17.9242631 1.59194774,17.1911933 1.98660184,16.7890018 C2.38129112,16.3867082 3.16472576,16.4511086 3.52540465,16.7995531 L3.52540465,16.7995531 L7.72415713,20.6287875 L7.72251157,8.14535105 C7.72239743,8.13895981 7.72234012,8.1325547 7.72234012,8.1261362 C7.72234012,3.74256583 11.1932845,0.169677947 15.5367779,0.00586789489 L15.8484763,0 L21.2015981,0 Z" id="Combined-Shape"></path>
        </g>
    </g>
</svg>