<?xml version="1.0" encoding="UTF-8"?>
<svg width="24px" height="24px" viewBox="0 0 24 24" version="1.1" xmlns="http://www.w3.org/2000/svg" xmlns:xlink="http://www.w3.org/1999/xlink">
    <title>1. Atoms / Icons / Documents / Doc</title>
    <g id="1.-Atoms-/-Icons-/-Documents-/-Doc" stroke="none" stroke-width="1" fill="none" fill-rule="evenodd">
        <path d="M14.585786,1 C15.1162238,1 15.6249404,1.2107172 16,1.58578578 L16,1.58578578 L19.4142281,5.00001153 C19.7892883,5.37508371 20,5.88378707 20,6.414214 L20,6.414214 L20,22 C20,22.5522847 19.5522847,23 19,23 L5,23 C4.44771525,23 4,22.5522847 4,22 L4,3 C4,1.8954305 4.8954305,1 6,1 L6,1 Z M12.666,3 L6,3 L6,17 L18,17 L18,9 L15,9 C13.7650299,9 12.754146,8.04057339 12.6720497,6.82642102 L12.6666667,6.66666667 L12.666,3 Z M15,14.5 C15.2761424,14.5 15.5,14.7238576 15.5,15 C15.5,15.2454599 15.3231248,15.4496084 15.0898756,15.4919443 L15,15.5 L9,15.5 C8.72385763,15.5 8.5,15.2761424 8.5,15 C8.5,14.7545401 8.67687516,14.5503916 8.91012437,14.5080557 L9,14.5 L15,14.5 Z M15,12.5 C15.2761424,12.5 15.5,12.7238576 15.5,13 C15.5,13.2454599 15.3231248,13.4496084 15.0898756,13.4919443 L15,13.5 L9,13.5 C8.72385763,13.5 8.5,13.2761424 8.5,13 C8.5,12.7545401 8.67687516,12.5503916 8.91012437,12.5080557 L9,12.5 L15,12.5 Z M15,10.5 C15.2761424,10.5 15.5,10.7238576 15.5,11 C15.5,11.2454599 15.3231248,11.4496084 15.0898756,11.4919443 L15,11.5 L9,11.5 C8.72385763,11.5 8.5,11.2761424 8.5,11 C8.5,10.7545401 8.67687516,10.5503916 8.91012437,10.5080557 L9,10.5 L15,10.5 Z M14.666,3.081 L14.6666667,6.66666667 C14.6666667,6.82774985 14.7809272,6.9621458 14.9328217,6.99322786 L15,7 L18,7 L18,6.414214 L14.666,3.081 Z" id="Combined-Shape" fill="#272932"></path>
        <path d="M8.76146364,21.5 C9.05691818,21.5 9.3109428,21.4417614 9.5235375,21.3252841 C9.7361322,21.2088068 9.89948447,21.0416667 10.0135943,20.8238636 C10.1277042,20.6060606 10.1847591,20.3456439 10.1847591,20.0426136 C10.1847591,19.7405303 10.1277042,19.4810606 10.0135943,19.2642045 C9.89948447,19.0473485 9.73684242,18.8809186 9.52566818,18.7649148 C9.31449394,18.648911 9.0626,18.5909091 8.76998636,18.5909091 L8.76998636,18.5909091 L7.73021364,18.5909091 L7.73021364,21.5 L8.76146364,21.5 Z M8.73589545,20.9730114 L8.34527045,20.9730114 L8.34527045,19.1178977 L8.73731591,19.1178977 C8.91913409,19.1178977 9.0720697,19.1500947 9.19612273,19.2144886 C9.32017576,19.2788826 9.41368902,19.3792614 9.4766625,19.515625 C9.53963598,19.6519886 9.57112273,19.8276515 9.57112273,20.0426136 C9.57112273,20.2594697 9.53963598,20.4363163 9.4766625,20.5731534 C9.41368902,20.7099905 9.31993902,20.8108428 9.1954125,20.8757102 C9.07088598,20.9405777 8.91771364,20.9730114 8.73589545,20.9730114 L8.73589545,20.9730114 Z M11.9503174,21.5397727 C12.2069462,21.5397727 12.4382436,21.4812973 12.6442095,21.3643466 C12.8501754,21.2473958 13.0130542,21.0776515 13.1328458,20.8551136 C13.2526375,20.6325758 13.3125333,20.3626894 13.3125333,20.0454545 C13.3125333,19.7282197 13.2526375,19.4583333 13.1328458,19.2357955 C13.0130542,19.0132576 12.8501754,18.8435133 12.6442095,18.7265625 C12.4382436,18.6096117 12.2069462,18.5511364 11.9503174,18.5511364 C11.6917947,18.5511364 11.4597871,18.6096117 11.2542947,18.7265625 C11.0488023,18.8435133 10.886397,19.0132576 10.7670788,19.2357955 C10.6477606,19.4583333 10.5881015,19.7282197 10.5881015,20.0454545 C10.5881015,20.3617424 10.6477606,20.6311553 10.7670788,20.8536932 C10.886397,21.0762311 11.0488023,21.2462121 11.2542947,21.3636364 C11.4597871,21.4810606 11.6917947,21.5397727 11.9503174,21.5397727 Z M11.9503174,20.9957386 C11.8016432,20.9957386 11.6719083,20.9592803 11.5611129,20.8863636 C11.4503174,20.813447 11.3643799,20.7064394 11.3033004,20.5653409 C11.2422208,20.4242424 11.2116811,20.250947 11.2116811,20.0454545 C11.2116811,19.8399621 11.2422208,19.6666667 11.3033004,19.5255682 C11.3643799,19.3844697 11.4503174,19.2774621 11.5611129,19.2045455 C11.6719083,19.1316288 11.8016432,19.0951705 11.9503174,19.0951705 C12.0989917,19.0951705 12.2287265,19.1316288 12.339522,19.2045455 C12.4503174,19.2774621 12.5362549,19.3844697 12.5973345,19.5255682 C12.658414,19.6666667 12.6889538,19.8399621 12.6889538,20.0454545 C12.6889538,20.250947 12.658414,20.4242424 12.5973345,20.5653409 C12.5362549,20.7064394 12.4503174,20.813447 12.339522,20.8863636 C12.2287265,20.9592803 12.0989917,20.9957386 11.9503174,20.9957386 Z M15.0709894,21.5397727 C15.2575424,21.5397727 15.4249193,21.5116004 15.5731201,21.4552557 C15.7213208,21.398911 15.8491617,21.3222064 15.9566428,21.225142 C16.0641239,21.1280777 16.1498246,21.0177557 16.2137451,20.8941761 C16.2776655,20.7705966 16.317675,20.6420455 16.3337735,20.5085227 L16.3337735,20.5085227 L15.7116144,20.5056818 C15.6974098,20.5833333 15.6720784,20.6524621 15.6356201,20.7130682 C15.5991617,20.7736742 15.5534705,20.8250473 15.4985462,20.8671875 C15.443622,20.9093277 15.3808852,20.9412879 15.310336,20.9630682 C15.2397867,20.9848485 15.1633189,20.9957386 15.0809326,20.9957386 C14.9341523,20.9957386 14.8048909,20.9597538 14.6931485,20.8877841 C14.5814061,20.8158144 14.4945216,20.7092803 14.4324951,20.5681818 C14.3704686,20.4270833 14.3394553,20.2528409 14.3394553,20.0454545 C14.3394553,19.84375 14.3702318,19.6721117 14.4317848,19.5305398 C14.4933379,19.3889678 14.5799856,19.2810133 14.691728,19.2066761 C14.8034705,19.132339 14.9346258,19.0951705 15.0851939,19.0951705 C15.1685273,19.0951705 15.245942,19.1070076 15.3174383,19.1306818 C15.3889345,19.1543561 15.4521447,19.188447 15.5070689,19.2329545 C15.5619932,19.2774621 15.6069742,19.3312027 15.6420121,19.3941761 C15.67705,19.4571496 15.7002508,19.5288826 15.7116144,19.609375 L15.7116144,19.609375 L16.3337735,19.609375 C16.3138871,19.4408144 16.2686693,19.2911932 16.1981201,19.1605114 C16.1275708,19.0298295 16.036425,18.9192708 15.9246826,18.8288352 C15.8129402,18.7383996 15.6848625,18.6695076 15.5404496,18.6221591 C15.3960367,18.5748106 15.23955,18.5511364 15.0709894,18.5511364 C14.8153076,18.5511364 14.5851939,18.6096117 14.3806485,18.7265625 C14.176103,18.8435133 14.0141712,19.0132576 13.894853,19.2357955 C13.7755348,19.4583333 13.7158758,19.7282197 13.7158758,20.0454545 C13.7158758,20.3617424 13.7748246,20.6311553 13.8927223,20.8536932 C14.0106201,21.0762311 14.1716049,21.2462121 14.3756769,21.3636364 C14.5797489,21.4810606 14.8115197,21.5397727 15.0709894,21.5397727 Z" id="DOC" fill="#FFFFFF" fill-rule="nonzero"></path>
    </g>
</svg>