<?xml version="1.0" encoding="UTF-8"?>
<svg width="24px" height="24px" viewBox="0 0 24 24" version="1.1" xmlns="http://www.w3.org/2000/svg" xmlns:xlink="http://www.w3.org/1999/xlink">
    <title>1. Atoms / Icons / Filters</title>
    <g id="Icons" stroke="none" stroke-width="1" fill="none" fill-rule="evenodd">
        <g id="1.-Atoms-/-Icons-/-Filters" fill="#272932">
            <path d="M17.0000488,17 C18.5800207,17 19.9040545,18.0590024 20.3370397,19.49999 L20.3370397,19.49999 L23.0000605,19.49999 C23.553046,19.49999 24,19.9480222 24,20.5000234 C24,21.0520247 23.5529991,21.50001 23.0000137,21.50001 L23.0000137,21.50001 L20.3369928,21.50001 C19.9030232,22.9409976 18.5799738,24 17,24 C15.4200301,24 14.0959963,22.9409976 13.6630111,21.50001 L13.6630111,21.50001 L0.999986328,21.50001 C0.44798525,21.50001 0,21.0520247 0,20.5000234 C0,19.9480222 0.44798525,19.49999 0.999986328,19.49999 L0.999986328,19.49999 L13.6630579,19.49999 C14.0970275,18.0590024 15.420077,17 17.0000488,17 Z M17.0000459,19.0000201 C16.1730316,19.0000201 15.5000459,19.673006 15.5000459,20.5000201 C15.5000459,21.3270409 16.1730316,22.0000201 17.0000459,22.0000201 C17.8270192,22.0000201 18.5000459,21.3270409 18.5000459,20.5000201 C18.5000459,19.673006 17.8270661,19.0000201 17.0000459,19.0000201 Z M7.00004492,8 C8.58001676,8 9.90301934,9.05900946 10.3370358,10.5 L10.3370358,10.5 L23.0000605,10.5 C23.553046,10.5 24,10.9479951 24,11.5 C24,12.0520049 23.5529991,12.5 23.0000137,12.5 L23.0000137,12.5 L10.3369889,12.5 C9.90301934,13.9409905 8.57996988,15 7,15 C5.42002621,15 4.09702363,13.9409905 3.66300715,12.5 L3.66300715,12.5 L0.999986328,12.5 C0.44798525,12.5 0,12.0520049 0,11.5 C0,10.9479951 0.44798525,10.5 0.999986328,10.5 L0.999986328,10.5 L3.66305403,10.5 C4.09702363,9.05900946 5.42007309,8 7.00004492,8 Z M6.99999512,9.99998661 C6.17298081,9.99998661 5.49999512,10.672977 5.49999512,11.5 C5.49999512,12.327023 6.17298081,13.0000134 6.99999512,13.0000134 C7.82701529,13.0000134 8.49999512,12.327023 8.49999512,11.5 C8.49999512,10.672977 7.82701529,9.99998661 6.99999512,9.99998661 Z M17.0000156,0 C18.5799844,0 19.9029844,1.05900236 20.337,2.49998996 L20.337,2.49998996 L23.0000156,2.49998996 C23.553,2.49998996 24,2.94802221 24,3.50002344 C24,4.05202467 23.553,4.50001004 23.0000156,4.50001004 L23.0000156,4.50001004 L20.337,4.50001004 C19.9030312,5.94099764 18.5800312,7 17.0000156,7 C15.42,7 14.097,5.94099764 13.6629844,4.49996317 L13.6629844,4.49996317 L0.999984375,4.49996317 C0.447984375,4.49996317 0,4.05197779 0,3.49997656 C0,2.94797533 0.447984375,2.49998996 0.999984375,2.49998996 L0.999984375,2.49998996 L13.6629844,2.49998996 C14.097,1.05900236 15.4200469,0 17.0000156,0 Z M17.0000156,1.99997321 C16.173,1.99997321 15.5000156,2.67295909 15.5000156,3.49997321 C15.5000156,4.32699403 16.173,4.99997321 17.0000156,4.99997321 C17.8269844,4.99997321 18.5000156,4.32699403 18.5000156,3.49997321 C18.5000156,2.67295909 17.8270312,1.99997321 17.0000156,1.99997321 Z" id="Combined-Shape"></path>
        </g>
    </g>
</svg>