<?xml version="1.0" encoding="UTF-8"?>
<svg width="24px" height="24px" viewBox="0 0 24 24" version="1.1" xmlns="http://www.w3.org/2000/svg" xmlns:xlink="http://www.w3.org/1999/xlink">
    <title>1. Atoms / Icons / Documents / Ods</title>
    <g id="1.-Atoms-/-Icons-/-Documents-/-Ods" stroke="none" stroke-width="1" fill="none" fill-rule="evenodd">
        <path d="M14.585786,1 C15.1162238,1 15.6249404,1.2107172 16,1.58578578 L16,1.58578578 L19.4142281,5.00001153 C19.7892883,5.37508371 20,5.88378707 20,6.414214 L20,6.414214 L20,22 C20,22.5522847 19.5522847,23 19,23 L5,23 C4.44771525,23 4,22.5522847 4,22 L4,3 C4,1.8954305 4.8954305,1 6,1 L6,1 Z M12.666,3 L6,3 L6,17 L18,17 L18,9 L15,9 C13.7650299,9 12.754146,8.04057339 12.6720497,6.82642102 L12.6666667,6.66666667 L12.666,3 Z M9,15.5 C8.75454011,15.5 8.55039163,15.3231248 8.50805567,15.0898756 L8.5,15 L8.5,11 C8.5,10.7238576 8.72385763,10.5 9,10.5 L15,10.5 L15,10.5 C15.2454599,10.5 15.4496084,10.6768752 15.4919443,10.9101244 L15.5,11 L15.5,15 L15.5,15 C15.5,15.2454599 15.3231248,15.4496084 15.0898756,15.4919443 L15,15.5 L15,15.5 L9,15.5 L9,15.5 Z M11.5,13.5 L9.5,13.5 L9.5,14.5 L11.5,14.5 L11.5,13.5 Z M14.5,13.5 L12.5,13.5 L12.5,14.5 L14.5,14.5 L14.5,13.5 Z M11.5,11.5 L9.5,11.5 L9.5,12.5 L11.5,12.5 L11.5,11.5 Z M14.5,11.5 L12.5,11.5 L12.5,12.5 L14.5,12.5 L14.5,11.5 Z M14.666,3.081 L14.6666667,6.66666667 C14.6666667,6.82774985 14.7809272,6.9621458 14.9328217,6.99322786 L15,7 L18,7 L18,6.414214 L14.666,3.081 Z" id="Combined-Shape" fill="#272932"></path>
        <path d="M9.23589545,21.5397727 C9.49252424,21.5397727 9.72382159,21.4812973 9.9297875,21.3643466 C10.1357534,21.2473958 10.2986322,21.0776515 10.4184239,20.8551136 C10.5382155,20.6325758 10.5981114,20.3626894 10.5981114,20.0454545 C10.5981114,19.7282197 10.5382155,19.4583333 10.4184239,19.2357955 C10.2986322,19.0132576 10.1357534,18.8435133 9.9297875,18.7265625 C9.72382159,18.6096117 9.49252424,18.5511364 9.23589545,18.5511364 C8.97737273,18.5511364 8.74536515,18.6096117 8.53987273,18.7265625 C8.3343803,18.8435133 8.171975,19.0132576 8.05265682,19.2357955 C7.93333864,19.4583333 7.87367955,19.7282197 7.87367955,20.0454545 C7.87367955,20.3617424 7.93333864,20.6311553 8.05265682,20.8536932 C8.171975,21.0762311 8.3343803,21.2462121 8.53987273,21.3636364 C8.74536515,21.4810606 8.97737273,21.5397727 9.23589545,21.5397727 Z M9.23589545,20.9957386 C9.08722121,20.9957386 8.95748636,20.9592803 8.84669091,20.8863636 C8.73589545,20.813447 8.64995795,20.7064394 8.58887841,20.5653409 C8.52779886,20.4242424 8.49725909,20.250947 8.49725909,20.0454545 C8.49725909,19.8399621 8.52779886,19.6666667 8.58887841,19.5255682 C8.64995795,19.3844697 8.73589545,19.2774621 8.84669091,19.2045455 C8.95748636,19.1316288 9.08722121,19.0951705 9.23589545,19.0951705 C9.3845697,19.0951705 9.51430455,19.1316288 9.6251,19.2045455 C9.73589545,19.2774621 9.82183295,19.3844697 9.8829125,19.5255682 C9.94399205,19.6666667 9.97453182,19.8399621 9.97453182,20.0454545 C9.97453182,20.250947 9.94399205,20.4242424 9.8829125,20.5653409 C9.82183295,20.7064394 9.73589545,20.813447 9.6251,20.8863636 C9.51430455,20.9592803 9.3845697,20.9957386 9.23589545,20.9957386 Z M12.0838402,21.5 C12.3792947,21.5 12.6333193,21.4417614 12.845914,21.3252841 C13.0585087,21.2088068 13.221861,21.0416667 13.3359708,20.8238636 C13.4500807,20.6060606 13.5071356,20.3456439 13.5071356,20.0426136 C13.5071356,19.7405303 13.4500807,19.4810606 13.3359708,19.2642045 C13.221861,19.0473485 13.0592189,18.8809186 12.8480447,18.7649148 C12.6368705,18.648911 12.3849765,18.5909091 12.0923629,18.5909091 L12.0923629,18.5909091 L11.0525902,18.5909091 L11.0525902,21.5 L12.0838402,21.5 Z M12.058272,20.9730114 L11.667647,20.9730114 L11.667647,19.1178977 L12.0596924,19.1178977 C12.2415106,19.1178977 12.3944462,19.1500947 12.5184992,19.2144886 C12.6425523,19.2788826 12.7360655,19.3792614 12.799039,19.515625 C12.8620125,19.6519886 12.8934992,19.8276515 12.8934992,20.0426136 C12.8934992,20.2594697 12.8620125,20.4363163 12.799039,20.5731534 C12.7360655,20.7099905 12.6423155,20.8108428 12.517789,20.8757102 C12.3932625,20.9405777 12.2400902,20.9730114 12.058272,20.9730114 L12.058272,20.9730114 Z M15.0397394,21.5411932 C15.2764818,21.5411932 15.4788966,21.5054451 15.6469837,21.4339489 C15.8150708,21.3624527 15.9438587,21.2616004 16.0333473,21.131392 C16.122836,21.0011837 16.1680538,20.8470644 16.1690008,20.6690341 C16.1680538,20.547822 16.1460367,20.4403409 16.1029496,20.3465909 C16.0598625,20.2528409 15.9994932,20.1714015 15.9218417,20.1022727 C15.8441902,20.0331439 15.7523341,19.9749053 15.6462735,19.9275568 C15.5402129,19.8802083 15.4237356,19.8423295 15.2968417,19.8139205 L15.2968417,19.8139205 L15.035478,19.7514205 C14.9720311,19.7372159 14.912372,19.7199337 14.8565008,19.6995739 C14.8006295,19.679214 14.7513871,19.6550663 14.7087735,19.6271307 C14.6661598,19.5991951 14.6327792,19.5658144 14.6086314,19.5269886 C14.5844837,19.4881629 14.5733568,19.4427083 14.5752508,19.390625 C14.5752508,19.328125 14.5934799,19.2722538 14.6299383,19.2230114 C14.6663966,19.1737689 14.7191902,19.1351799 14.7883189,19.1072443 C14.8574477,19.0793087 14.9422015,19.0653409 15.0425803,19.0653409 C15.1903076,19.0653409 15.3072583,19.0970644 15.3934326,19.1605114 C15.4796068,19.2239583 15.5283758,19.3129735 15.5397394,19.4275568 L15.5397394,19.4275568 L16.129228,19.4275568 C16.1263871,19.2542614 16.0799856,19.1017992 15.9900235,18.9701705 C15.9000614,18.8385417 15.7743511,18.7357955 15.6128928,18.6619318 C15.4514345,18.5880682 15.2627508,18.5511364 15.0468417,18.5511364 C14.8347205,18.5511364 14.6453265,18.5880682 14.4786598,18.6619318 C14.3119932,18.7357955 14.1810746,18.8385417 14.0859042,18.9701705 C13.9907337,19.1017992 13.943622,19.2556818 13.9445689,19.4318182 C13.943622,19.6467803 14.0141712,19.8177083 14.1562167,19.9446023 C14.2982621,20.0714962 14.4919174,20.1647727 14.7371826,20.2244318 L14.7371826,20.2244318 L15.0539439,20.3039773 C15.1600045,20.3295455 15.2497299,20.3579545 15.3231201,20.3892045 C15.3965102,20.4204545 15.4523814,20.4583333 15.4907337,20.5028409 C15.529086,20.5473485 15.5482621,20.6022727 15.5482621,20.6676136 C15.5482621,20.7376894 15.5269553,20.7997159 15.4843417,20.8536932 C15.441728,20.9076705 15.3818322,20.9498106 15.3046542,20.9801136 C15.2274761,21.0104167 15.1368038,21.0255682 15.0326371,21.0255682 C14.9265765,21.0255682 14.8316428,21.009233 14.747836,20.9765625 C14.6640292,20.943892 14.5972678,20.8951231 14.5475519,20.8302557 C14.497836,20.7653883 14.4696636,20.6841856 14.4630348,20.5866477 L14.4630348,20.5866477 L13.8678644,20.5866477 C13.8725992,20.795928 13.9234989,20.9713542 14.0205633,21.1129261 C14.1176277,21.2544981 14.2530443,21.3612689 14.4268133,21.4332386 C14.6005822,21.5052083 14.8048909,21.5411932 15.0397394,21.5411932 Z" id="ODS" fill="#FFFFFF" fill-rule="nonzero"></path>
    </g>
</svg>