<?xml version="1.0" encoding="UTF-8"?>
<svg width="24px" height="24px" viewBox="0 0 24 24" version="1.1" xmlns="http://www.w3.org/2000/svg" xmlns:xlink="http://www.w3.org/1999/xlink">
    <title>1. Atoms / Icons / Documents / Odt</title>
    <g id="1.-Atoms-/-Icons-/-Documents-/-Odt" stroke="none" stroke-width="1" fill="none" fill-rule="evenodd">
        <path d="M14.585786,1 C15.1162238,1 15.6249404,1.2107172 16,1.58578578 L16,1.58578578 L19.4142281,5.00001153 C19.7892883,5.37508371 20,5.88378707 20,6.414214 L20,6.414214 L20,22 C20,22.5522847 19.5522847,23 19,23 L5,23 C4.44771525,23 4,22.5522847 4,22 L4,3 C4,1.8954305 4.8954305,1 6,1 L6,1 Z M12.666,3 L6,3 L6,17 L18,17 L18,9 L15,9 C13.7650299,9 12.754146,8.04057339 12.6720497,6.82642102 L12.6666667,6.66666667 L12.666,3 Z M15,14.5 C15.2761424,14.5 15.5,14.7238576 15.5,15 C15.5,15.2454599 15.3231248,15.4496084 15.0898756,15.4919443 L15,15.5 L9,15.5 C8.72385763,15.5 8.5,15.2761424 8.5,15 C8.5,14.7545401 8.67687516,14.5503916 8.91012437,14.5080557 L9,14.5 L15,14.5 Z M15,12.5 C15.2761424,12.5 15.5,12.7238576 15.5,13 C15.5,13.2454599 15.3231248,13.4496084 15.0898756,13.4919443 L15,13.5 L9,13.5 C8.72385763,13.5 8.5,13.2761424 8.5,13 C8.5,12.7545401 8.67687516,12.5503916 8.91012437,12.5080557 L9,12.5 L15,12.5 Z M15,10.5 C15.2761424,10.5 15.5,10.7238576 15.5,11 C15.5,11.2454599 15.3231248,11.4496084 15.0898756,11.4919443 L15,11.5 L9,11.5 C8.72385763,11.5 8.5,11.2761424 8.5,11 C8.5,10.7545401 8.67687516,10.5503916 8.91012437,10.5080557 L9,10.5 L15,10.5 Z M14.666,3.081 L14.6666667,6.66666667 C14.6666667,6.82774985 14.7809272,6.9621458 14.9328217,6.99322786 L15,7 L18,7 L18,6.414214 L14.666,3.081 Z" id="Combined-Shape" fill="#272932"></path>
        <path d="M9.2735375,21.5397727 C9.53016629,21.5397727 9.76146364,21.4812973 9.96742955,21.3643466 C10.1733955,21.2473958 10.3362742,21.0776515 10.4560659,20.8551136 C10.5758576,20.6325758 10.6357534,20.3626894 10.6357534,20.0454545 C10.6357534,19.7282197 10.5758576,19.4583333 10.4560659,19.2357955 C10.3362742,19.0132576 10.1733955,18.8435133 9.96742955,18.7265625 C9.76146364,18.6096117 9.53016629,18.5511364 9.2735375,18.5511364 C9.01501477,18.5511364 8.7830072,18.6096117 8.57751477,18.7265625 C8.37202235,18.8435133 8.20961705,19.0132576 8.09029886,19.2357955 C7.97098068,19.4583333 7.91132159,19.7282197 7.91132159,20.0454545 C7.91132159,20.3617424 7.97098068,20.6311553 8.09029886,20.8536932 C8.20961705,21.0762311 8.37202235,21.2462121 8.57751477,21.3636364 C8.7830072,21.4810606 9.01501477,21.5397727 9.2735375,21.5397727 Z M9.2735375,20.9957386 C9.12486326,20.9957386 8.99512841,20.9592803 8.88433295,20.8863636 C8.7735375,20.813447 8.6876,20.7064394 8.62652045,20.5653409 C8.56544091,20.4242424 8.53490114,20.250947 8.53490114,20.0454545 C8.53490114,19.8399621 8.56544091,19.6666667 8.62652045,19.5255682 C8.6876,19.3844697 8.7735375,19.2774621 8.88433295,19.2045455 C8.99512841,19.1316288 9.12486326,19.0951705 9.2735375,19.0951705 C9.42221174,19.0951705 9.55194659,19.1316288 9.66274205,19.2045455 C9.7735375,19.2774621 9.859475,19.3844697 9.92055455,19.5255682 C9.98163409,19.6666667 10.0121739,19.8399621 10.0121739,20.0454545 C10.0121739,20.250947 9.98163409,20.4242424 9.92055455,20.5653409 C9.859475,20.7064394 9.7735375,20.813447 9.66274205,20.8863636 C9.55194659,20.9592803 9.42221174,20.9957386 9.2735375,20.9957386 Z M12.1214822,21.5 C12.4169367,21.5 12.6709614,21.4417614 12.8835561,21.3252841 C13.0961508,21.2088068 13.259503,21.0416667 13.3736129,20.8238636 C13.4877227,20.6060606 13.5447777,20.3456439 13.5447777,20.0426136 C13.5447777,19.7405303 13.4877227,19.4810606 13.3736129,19.2642045 C13.259503,19.0473485 13.096861,18.8809186 12.8856867,18.7649148 C12.6745125,18.648911 12.4226186,18.5909091 12.1300049,18.5909091 L12.1300049,18.5909091 L11.0902322,18.5909091 L11.0902322,21.5 L12.1214822,21.5 Z M12.095914,20.9730114 L11.705289,20.9730114 L11.705289,19.1178977 L12.0973345,19.1178977 C12.2791527,19.1178977 12.4320883,19.1500947 12.5561413,19.2144886 C12.6801943,19.2788826 12.7737076,19.3792614 12.8366811,19.515625 C12.8996545,19.6519886 12.9311413,19.8276515 12.9311413,20.0426136 C12.9311413,20.2594697 12.8996545,20.4363163 12.8366811,20.5731534 C12.7737076,20.7099905 12.6799576,20.8108428 12.5554311,20.8757102 C12.4309045,20.9405777 12.2777322,20.9730114 12.095914,20.9730114 L12.095914,20.9730114 Z M15.2577792,21.5 L15.2577792,19.0980114 L16.1484042,19.0980114 L16.1484042,18.5909091 L13.7591996,18.5909091 L13.7591996,19.0980114 L14.6498246,19.0980114 L14.6498246,21.5 L15.2577792,21.5 Z" id="ODT" fill="#FFFFFF" fill-rule="nonzero"></path>
    </g>
</svg>