<?xml version="1.0" encoding="UTF-8"?>
<svg width="24px" height="24px" viewBox="0 0 24 24" version="1.1" xmlns="http://www.w3.org/2000/svg" xmlns:xlink="http://www.w3.org/1999/xlink">
    <title>1. Atoms / Icons / Documents / Ops</title>
    <g id="1.-Atoms-/-Icons-/-Documents-/-Ops" stroke="none" stroke-width="1" fill="none" fill-rule="evenodd">
        <path d="M14.585786,1 C15.1162238,1 15.6249404,1.2107172 16,1.58578578 L16,1.58578578 L19.4142281,5.00001153 C19.7892883,5.37508371 20,5.88378707 20,6.414214 L20,6.414214 L20,22 C20,22.5522847 19.5522847,23 19,23 L5,23 C4.44771525,23 4,22.5522847 4,22 L4,3 C4,1.8954305 4.8954305,1 6,1 L6,1 Z M12.666,3 L6,3 L6,17 L18,17 L18,9 L15,9 C13.7650299,9 12.754146,8.04057339 12.6720497,6.82642102 L12.6666667,6.66666667 L12.666,3 Z M9,15.5 C8.75454011,15.5 8.55039163,15.3231248 8.50805567,15.0898756 L8.5,15 L8.5,11 C8.5,10.7238576 8.72385763,10.5 9,10.5 L15,10.5 L15,10.5 C15.2454599,10.5 15.4496084,10.6768752 15.4919443,10.9101244 L15.5,11 L15.5,15 L15.5,15 C15.5,15.2454599 15.3231248,15.4496084 15.0898756,15.4919443 L15,15.5 L15,15.5 L9,15.5 L9,15.5 Z M11.5,13.5 L9.5,13.5 L9.5,14.5 L11.5,14.5 L11.5,13.5 Z M14.5,13.5 L12.5,13.5 L12.5,14.5 L14.5,14.5 L14.5,13.5 Z M11.5,11.5 L9.5,11.5 L9.5,12.5 L11.5,12.5 L11.5,11.5 Z M14.5,11.5 L12.5,11.5 L12.5,12.5 L14.5,12.5 L14.5,11.5 Z M14.666,3.081 L14.6666667,6.66666667 C14.6666667,6.82774985 14.7809272,6.9621458 14.9328217,6.99322786 L15,7 L18,7 L18,6.414214 L14.666,3.081 Z" id="Combined-Shape" fill="#272932"></path>
        <path d="M9.39498636,21.5397727 C9.65161515,21.5397727 9.8829125,21.4812973 10.0888784,21.3643466 C10.2948443,21.2473958 10.4577231,21.0776515 10.5775148,20.8551136 C10.6973064,20.6325758 10.7572023,20.3626894 10.7572023,20.0454545 C10.7572023,19.7282197 10.6973064,19.4583333 10.5775148,19.2357955 C10.4577231,19.0132576 10.2948443,18.8435133 10.0888784,18.7265625 C9.8829125,18.6096117 9.65161515,18.5511364 9.39498636,18.5511364 C9.13646364,18.5511364 8.90445606,18.6096117 8.69896364,18.7265625 C8.49347121,18.8435133 8.33106591,19.0132576 8.21174773,19.2357955 C8.09242955,19.4583333 8.03277045,19.7282197 8.03277045,20.0454545 C8.03277045,20.3617424 8.09242955,20.6311553 8.21174773,20.8536932 C8.33106591,21.0762311 8.49347121,21.2462121 8.69896364,21.3636364 C8.90445606,21.4810606 9.13646364,21.5397727 9.39498636,21.5397727 Z M9.39498636,20.9957386 C9.24631212,20.9957386 9.11657727,20.9592803 9.00578182,20.8863636 C8.89498636,20.813447 8.80904886,20.7064394 8.74796932,20.5653409 C8.68688977,20.4242424 8.65635,20.250947 8.65635,20.0454545 C8.65635,19.8399621 8.68688977,19.6666667 8.74796932,19.5255682 C8.80904886,19.3844697 8.89498636,19.2774621 9.00578182,19.2045455 C9.11657727,19.1316288 9.24631212,19.0951705 9.39498636,19.0951705 C9.54366061,19.0951705 9.67339545,19.1316288 9.78419091,19.2045455 C9.89498636,19.2774621 9.98092386,19.3844697 10.0420034,19.5255682 C10.103083,19.6666667 10.1336227,19.8399621 10.1336227,20.0454545 C10.1336227,20.250947 10.103083,20.4242424 10.0420034,20.5653409 C9.98092386,20.7064394 9.89498636,20.813447 9.78419091,20.8863636 C9.67339545,20.9592803 9.54366061,20.9957386 9.39498636,20.9957386 Z M11.8267379,21.5 L11.826,20.557 L12.3437833,20.5568182 C12.511397,20.5568182 12.6605003,20.533647 12.7910933,20.4873047 L12.9155163,20.4332386 C13.0731867,20.3508523 13.1936886,20.2357955 13.277022,20.0880682 C13.3603553,19.9403409 13.402022,19.7698864 13.402022,19.5767045 C13.402022,19.3835227 13.3610655,19.2128314 13.2791527,19.0646307 C13.1972398,18.9164299 13.0786318,18.8004261 12.9233288,18.7166193 C12.7680258,18.6328125 12.5800523,18.5909091 12.3594083,18.5909091 L12.3594083,18.5909091 L11.2116811,18.5909091 L11.2116811,21.5 L11.8267379,21.5 Z M11.8267379,19.09375 L12.2415106,19.09375 C12.3608288,19.09375 12.4593136,19.1138731 12.5369652,19.1541193 C12.6146167,19.1943655 12.6726186,19.2507102 12.7109708,19.3231534 C12.7493231,19.3955966 12.7684992,19.4801136 12.7684992,19.5767045 C12.7684992,19.6723485 12.7493231,19.7568655 12.7109708,19.8302557 C12.6726186,19.9036458 12.6148534,19.9609375 12.5376754,20.0021307 C12.4604973,20.0433239 12.3627227,20.0639205 12.2443515,20.0639205 L12.2443515,20.0639205 L11.826,20.064 L11.8267379,19.09375 Z M14.8806485,21.5411932 C15.1173909,21.5411932 15.3198057,21.5054451 15.4878928,21.4339489 C15.6559799,21.3624527 15.7847678,21.2616004 15.8742564,21.131392 C15.9637451,21.0011837 16.0089629,20.8470644 16.0099098,20.6690341 C16.0089629,20.547822 15.9869458,20.4403409 15.9438587,20.3465909 C15.9007716,20.2528409 15.8404023,20.1714015 15.7627508,20.1022727 C15.6850992,20.0331439 15.5932432,19.9749053 15.4871826,19.9275568 C15.381122,19.8802083 15.2646447,19.8423295 15.1377508,19.8139205 L15.1377508,19.8139205 L14.8763871,19.7514205 C14.8129402,19.7372159 14.7532811,19.7199337 14.6974098,19.6995739 C14.6415386,19.679214 14.5922962,19.6550663 14.5496826,19.6271307 C14.5070689,19.5991951 14.4736883,19.5658144 14.4495405,19.5269886 C14.4253928,19.4881629 14.4142659,19.4427083 14.4161598,19.390625 C14.4161598,19.328125 14.434389,19.2722538 14.4708473,19.2230114 C14.5073057,19.1737689 14.5600992,19.1351799 14.629228,19.1072443 C14.6983568,19.0793087 14.7831106,19.0653409 14.8834894,19.0653409 C15.0312167,19.0653409 15.1481674,19.0970644 15.2343417,19.1605114 C15.3205159,19.2239583 15.3692848,19.3129735 15.3806485,19.4275568 L15.3806485,19.4275568 L15.9701371,19.4275568 C15.9672962,19.2542614 15.9208947,19.1017992 15.8309326,18.9701705 C15.7409705,18.8385417 15.6152602,18.7357955 15.4538019,18.6619318 C15.2923436,18.5880682 15.1036598,18.5511364 14.8877508,18.5511364 C14.6756295,18.5511364 14.4862356,18.5880682 14.3195689,18.6619318 C14.1529023,18.7357955 14.0219837,18.8385417 13.9268133,18.9701705 C13.8316428,19.1017992 13.7845311,19.2556818 13.785478,19.4318182 C13.7845311,19.6467803 13.8550803,19.8177083 13.9971258,19.9446023 C14.1391712,20.0714962 14.3328265,20.1647727 14.5780917,20.2244318 L14.5780917,20.2244318 L14.894853,20.3039773 C15.0009136,20.3295455 15.090639,20.3579545 15.1640292,20.3892045 C15.2374193,20.4204545 15.2932905,20.4583333 15.3316428,20.5028409 C15.3699951,20.5473485 15.3891712,20.6022727 15.3891712,20.6676136 C15.3891712,20.7376894 15.3678644,20.7997159 15.3252508,20.8536932 C15.2826371,20.9076705 15.2227413,20.9498106 15.1455633,20.9801136 C15.0683852,21.0104167 14.9777129,21.0255682 14.8735462,21.0255682 C14.7674856,21.0255682 14.6725519,21.009233 14.5887451,20.9765625 C14.5049383,20.943892 14.4381769,20.8951231 14.388461,20.8302557 C14.3387451,20.7653883 14.3105727,20.6841856 14.3039439,20.5866477 L14.3039439,20.5866477 L13.7087735,20.5866477 C13.7135083,20.795928 13.764408,20.9713542 13.8614723,21.1129261 C13.9585367,21.2544981 14.0939534,21.3612689 14.2677223,21.4332386 C14.4414913,21.5052083 14.6458,21.5411932 14.8806485,21.5411932 Z" id="OPS" fill="#FFFFFF" fill-rule="nonzero"></path>
    </g>
</svg>