<?xml version="1.0" encoding="UTF-8"?>
<svg width="24px" height="24px" viewBox="0 0 24 24" version="1.1" xmlns="http://www.w3.org/2000/svg" xmlns:xlink="http://www.w3.org/1999/xlink">
    <title>1. Atoms / Icons / Documents / Pdf</title>
    <g id="1.-Atoms-/-Icons-/-Documents-/-Pdf" stroke="none" stroke-width="1" fill="none" fill-rule="evenodd">
        <path d="M14.585786,1 C15.1162238,1 15.6249404,1.2107172 16,1.58578578 L16,1.58578578 L19.4142281,5.00001153 C19.7892883,5.37508371 20,5.88378707 20,6.414214 L20,6.414214 L20,22 C20,22.5522847 19.5522847,23 19,23 L5,23 C4.44771525,23 4,22.5522847 4,22 L4,3 C4,1.8954305 4.8954305,1 6,1 L6,1 Z M12.666,3 L6,3 L6,17 L18,17 L18,9 L15,9 C13.7650299,9 12.754146,8.04057339 12.6720497,6.82642102 L12.6666667,6.66666667 L12.666,3 Z M15,14.5 C15.2761424,14.5 15.5,14.7238576 15.5,15 C15.5,15.2454599 15.3231248,15.4496084 15.0898756,15.4919443 L15,15.5 L9,15.5 C8.72385763,15.5 8.5,15.2761424 8.5,15 C8.5,14.7545401 8.67687516,14.5503916 8.91012437,14.5080557 L9,14.5 L15,14.5 Z M15,12.5 C15.2761424,12.5 15.5,12.7238576 15.5,13 C15.5,13.2454599 15.3231248,13.4496084 15.0898756,13.4919443 L15,13.5 L9,13.5 C8.72385763,13.5 8.5,13.2761424 8.5,13 C8.5,12.7545401 8.67687516,12.5503916 8.91012437,12.5080557 L9,12.5 L15,12.5 Z M15,10.5 C15.2761424,10.5 15.5,10.7238576 15.5,11 C15.5,11.2454599 15.3231248,11.4496084 15.0898756,11.4919443 L15,11.5 L9,11.5 C8.72385763,11.5 8.5,11.2761424 8.5,11 C8.5,10.7545401 8.67687516,10.5503916 8.91012437,10.5080557 L9,10.5 L15,10.5 Z M14.666,3.081 L14.6666667,6.66666667 C14.6666667,6.82774985 14.7809272,6.9621458 14.9328217,6.99322786 L15,7 L18,7 L18,6.414214 L14.666,3.081 Z" id="Combined-Shape" fill="#272932"></path>
        <path d="M8.94825341,21.5 L8.948,20.557 L9.46529886,20.5568182 C9.6329125,20.5568182 9.78201584,20.533647 9.91260888,20.4873047 L10.0370318,20.4332386 C10.1947023,20.3508523 10.3152042,20.2357955 10.3985375,20.0880682 C10.4818708,19.9403409 10.5235375,19.7698864 10.5235375,19.5767045 C10.5235375,19.3835227 10.4825811,19.2128314 10.4006682,19.0646307 C10.3187553,18.9164299 10.2001473,18.8004261 10.0448443,18.7166193 C9.88954129,18.6328125 9.7015678,18.5909091 9.48092386,18.5909091 L9.48092386,18.5909091 L8.33319659,18.5909091 L8.33319659,21.5 L8.94825341,21.5 Z M8.94825341,19.09375 L9.36302614,19.09375 C9.48234432,19.09375 9.58082917,19.1138731 9.65848068,19.1541193 C9.7361322,19.1943655 9.79413409,19.2507102 9.83248636,19.3231534 C9.87083864,19.3955966 9.89001477,19.4801136 9.89001477,19.5767045 C9.89001477,19.6723485 9.87083864,19.7568655 9.83248636,19.8302557 C9.79413409,19.9036458 9.73636894,19.9609375 9.65919091,20.0021307 C9.58201288,20.0433239 9.48423826,20.0639205 9.36586705,20.0639205 L9.36586705,20.0639205 L8.948,20.064 L8.94825341,19.09375 Z M11.955289,21.5 C12.2507436,21.5 12.5047682,21.4417614 12.7173629,21.3252841 C12.9299576,21.2088068 13.0933098,21.0416667 13.2074197,20.8238636 C13.3215295,20.6060606 13.3785845,20.3456439 13.3785845,20.0426136 C13.3785845,19.7405303 13.3215295,19.4810606 13.2074197,19.2642045 C13.0933098,19.0473485 12.9306678,18.8809186 12.7194936,18.7649148 C12.5083193,18.648911 12.2564254,18.5909091 11.9638117,18.5909091 L11.9638117,18.5909091 L10.924039,18.5909091 L10.924039,21.5 L11.955289,21.5 Z M11.9297208,20.9730114 L11.5390958,20.9730114 L11.5390958,19.1178977 L11.9311413,19.1178977 C12.1129595,19.1178977 12.2658951,19.1500947 12.3899481,19.2144886 C12.5140011,19.2788826 12.6075144,19.3792614 12.6704879,19.515625 C12.7334614,19.6519886 12.7649481,19.8276515 12.7649481,20.0426136 C12.7649481,20.2594697 12.7334614,20.4363163 12.6704879,20.5731534 C12.6075144,20.7099905 12.5137644,20.8108428 12.3892379,20.8757102 C12.2647114,20.9405777 12.111539,20.9730114 11.9297208,20.9730114 L11.9297208,20.9730114 Z M14.4481201,21.5 L14.4481201,20.2982955 L15.6313587,20.2982955 L15.6313587,19.7911932 L14.4481201,19.7911932 L14.4481201,19.0980114 L15.7591996,19.0980114 L15.7591996,18.5909091 L13.8330633,18.5909091 L13.8330633,21.5 L14.4481201,21.5 Z" id="PDF" fill="#FFFFFF" fill-rule="nonzero"></path>
    </g>
</svg>