<?xml version="1.0" encoding="UTF-8"?>
<svg width="24px" height="24px" viewBox="0 0 24 24" version="1.1" xmlns="http://www.w3.org/2000/svg" xmlns:xlink="http://www.w3.org/1999/xlink">
    <title>1. Atoms / Icons / Documents / Ppt</title>
    <g id="1.-Atoms-/-Icons-/-Documents-/-Ppt" stroke="none" stroke-width="1" fill="none" fill-rule="evenodd">
        <path d="M14.585786,1 C15.1162238,1 15.6249404,1.2107172 16,1.58578578 L16,1.58578578 L19.4142281,5.00001153 C19.7892883,5.37508371 20,5.88378707 20,6.414214 L20,6.414214 L20,22 C20,22.5522847 19.5522847,23 19,23 L5,23 C4.44771525,23 4,22.5522847 4,22 L4,3 C4,1.8954305 4.8954305,1 6,1 L6,1 Z M12.666,3 L6,3 L6,17 L18,17 L18,9 L15,9 C13.7650299,9 12.754146,8.04057339 12.6720497,6.82642102 L12.6666667,6.66666667 L12.666,3 Z M10.2,9.9 C10.5313708,9.4581722 11.1581722,9.36862915 11.6,9.7 L11.6,9.7 L14.2666667,11.7 C14.3424723,11.7568542 14.4098124,11.8241943 14.4666667,11.9 C14.7980375,12.3418278 14.7084945,12.9686292 14.2666667,13.3 L14.2666667,13.3 L11.6,15.3 C11.4269038,15.4298221 11.2163702,15.5 11,15.5 C10.4477153,15.5 10,15.0522847 10,14.5 L10,14.5 L10,10.5 C10,10.2836298 10.0701779,10.0730962 10.2,9.9 Z M11,10.5 L11,14.5 L13.6666667,12.5 L11,10.5 Z M14.666,3.081 L14.6666667,6.66666667 C14.6666667,6.82774985 14.7809272,6.9621458 14.9328217,6.99322786 L15,7 L18,7 L18,6.414214 L14.666,3.081 Z" id="Combined-Shape" fill="#272932"></path>
        <path d="M8.94044091,21.5 L8.94,20.557 L9.45748636,20.5568182 C9.6251,20.5568182 9.77420334,20.533647 9.90479638,20.4873047 L10.0292193,20.4332386 C10.1868898,20.3508523 10.3073917,20.2357955 10.390725,20.0880682 C10.4740583,19.9403409 10.515725,19.7698864 10.515725,19.5767045 C10.515725,19.3835227 10.4747686,19.2128314 10.3928557,19.0646307 C10.3109428,18.9164299 10.1923348,18.8004261 10.0370318,18.7166193 C9.88172879,18.6328125 9.6937553,18.5909091 9.47311136,18.5909091 L9.47311136,18.5909091 L8.32538409,18.5909091 L8.32538409,21.5 L8.94044091,21.5 Z M8.94044091,19.09375 L9.35521364,19.09375 C9.47453182,19.09375 9.57301667,19.1138731 9.65066818,19.1541193 C9.7283197,19.1943655 9.78632159,19.2507102 9.82467386,19.3231534 C9.86302614,19.3955966 9.88220227,19.4801136 9.88220227,19.5767045 C9.88220227,19.6723485 9.86302614,19.7568655 9.82467386,19.8302557 C9.78632159,19.9036458 9.72855644,19.9609375 9.65137841,20.0021307 C9.57420038,20.0433239 9.47642576,20.0639205 9.35805455,20.0639205 L9.35805455,20.0639205 L8.94,20.064 L8.94044091,19.09375 Z M11.5312833,21.5 L11.531,20.557 L12.0483288,20.5568182 C12.2159424,20.5568182 12.3650458,20.533647 12.4956388,20.4873047 L12.6200617,20.4332386 C12.7777322,20.3508523 12.8982341,20.2357955 12.9815674,20.0880682 C13.0649008,19.9403409 13.1065674,19.7698864 13.1065674,19.5767045 C13.1065674,19.3835227 13.065611,19.2128314 12.9836981,19.0646307 C12.9017852,18.9164299 12.7831773,18.8004261 12.6278742,18.7166193 C12.4725712,18.6328125 12.2845977,18.5909091 12.0639538,18.5909091 L12.0639538,18.5909091 L10.9162265,18.5909091 L10.9162265,21.5 L11.5312833,21.5 Z M11.5312833,19.09375 L11.9460561,19.09375 C12.0653742,19.09375 12.1638591,19.1138731 12.2415106,19.1541193 C12.3191621,19.1943655 12.377164,19.2507102 12.4155163,19.3231534 C12.4538686,19.3955966 12.4730447,19.4801136 12.4730447,19.5767045 C12.4730447,19.6723485 12.4538686,19.7568655 12.4155163,19.8302557 C12.377164,19.9036458 12.3193989,19.9609375 12.2422208,20.0021307 C12.1650428,20.0433239 12.0672682,20.0639205 11.948897,20.0639205 L11.948897,20.0639205 L11.531,20.064 L11.5312833,19.09375 Z M14.894853,21.5 L14.894853,19.0980114 L15.785478,19.0980114 L15.785478,18.5909091 L13.3962735,18.5909091 L13.3962735,19.0980114 L14.2868985,19.0980114 L14.2868985,21.5 L14.894853,21.5 Z" id="PPT" fill="#FFFFFF" fill-rule="nonzero"></path>
    </g>
</svg>