<svg xmlns="http://www.w3.org/2000/svg" width="24" height="24" viewBox="0 0 24 24">
  <path fill="#272932" fill-rule="evenodd" d="M8,15 C8.55228475,15 9,15.4477153 9,16 L9,21 C9,21.5522847 8.55228475,22 8,22 L3,22 C2.44771525,22 2,21.5522847 2,21 L2,16 C2,15.4477153 2.44771525,15 3,15 L8,15 Z M21,15 C21.5522847,15 22,15.4477153 22,16 L22,21 C22,21.5522847 21.5522847,22 21,22 L16,22 C15.4477153,22 15,21.5522847 15,21 L15,16 C15,15.4477153 15.4477153,15 16,15 L21,15 Z M7,17 L4,17 L4,20 L7,20 L7,17 Z M20,17 L17,17 L17,20 L20,20 L20,17 Z M19,18 L19,19 L18,19 L18,18 L19,18 Z M6,18 L6,19 L5,19 L5,18 L6,18 Z M12,6 C12.5128358,6 12.9355072,6.38604019 12.9932723,6.88337887 L13,7 L13,11 L17,11 C17.5522847,11 18,11.4477153 18,12 C18,12.5128358 17.6139598,12.9355072 17.1166211,12.9932723 L17,13 L13,13 L13,17 C13,17.5522847 12.5522847,18 12,18 C11.4871642,18 11.0644928,17.6139598 11.0067277,17.1166211 L11,17 L11,13 L7,13 C6.44771525,13 6,12.5522847 6,12 C6,11.4871642 6.38604019,11.0644928 6.88337887,11.0067277 L7,11 L11,11 L11,7 C11,6.44771525 11.4477153,6 12,6 Z M8,2 C8.55228475,2 9,2.44771525 9,3 L9,8 C9,8.55228475 8.55228475,9 8,9 L3,9 C2.44771525,9 2,8.55228475 2,8 L2,3 C2,2.44771525 2.44771525,2 3,2 L8,2 Z M21,2 C21.5522847,2 22,2.44771525 22,3 L22,8 C22,8.55228475 21.5522847,9 21,9 L16,9 C15.4477153,9 15,8.55228475 15,8 L15,3 C15,2.44771525 15.4477153,2 16,2 L21,2 Z M7,4 L4,4 L4,7 L7,7 L7,4 Z M20,4 L17,4 L17,7 L20,7 L20,4 Z M6,5 L6,6 L5,6 L5,5 L6,5 Z M19,5 L19,6 L18,6 L18,5 L19,5 Z"/>
</svg>
