<svg xmlns="http://www.w3.org/2000/svg" width="24" height="24" viewBox="0 0 24 24">
  <path fill="#272932" fill-rule="evenodd" d="M8,15 C8.55228475,15 9,15.4477153 9,16 L9,21 C9,21.5522847 8.55228475,22 8,22 L3,22 C2.44771525,22 2,21.5522847 2,21 L2,16 C2,15.4477153 2.44771525,15 3,15 L8,15 Z M16.7134739,15.2902523 L18.4970049,17.0740049 L20.2805359,15.2902523 C20.6710602,14.899728 21.3042252,14.899728 21.6947495,15.2902523 L21.7037575,15.2992603 C22.0942818,15.6897846 22.0942818,16.3229496 21.7037575,16.7134739 L19.9200049,18.4970049 L21.7037575,20.2805359 C22.0942818,20.6710602 22.0942818,21.3042252 21.7037575,21.6947495 L21.6947495,21.7037575 C21.3042252,22.0942818 20.6710602,22.0942818 20.2805359,21.7037575 L18.4970049,19.9200049 L16.7134739,21.7037575 C16.3229496,22.0942818 15.6897846,22.0942818 15.2992603,21.7037575 L15.2902523,21.6947495 C14.899728,21.3042252 14.899728,20.6710602 15.2902523,20.2805359 L17.0740049,18.4970049 L15.2902523,16.7134739 C14.899728,16.3229496 14.899728,15.6897846 15.2902523,15.2992603 L15.2992603,15.2902523 C15.6897846,14.899728 16.3229496,14.899728 16.7134739,15.2902523 Z M7,17 L4,17 L4,20 L7,20 L7,17 Z M6,18 L6,19 L5,19 L5,18 L6,18 Z M12,6 C12.5128358,6 12.9355072,6.38604019 12.9932723,6.88337887 L13,7 L13,10.999359 L17,11 C17.5522847,11 18,11.4477153 18,12 C18,12.5128358 17.6139598,12.9355072 17.1166211,12.9932723 L17,13 L13,12.999359 L13,17 C13,17.5522847 12.5522847,18 12,18 C11.4871642,18 11.0644928,17.6139598 11.0067277,17.1166211 L11,17 L11,12.999359 L7,13 C6.44771525,13 6,12.5522847 6,12 C6,11.4871642 6.38604019,11.0644928 6.88337887,11.0067277 L7,11 L11,10.999359 L11,7 C11,6.44771525 11.4477153,6 12,6 Z M8,2 C8.55228475,2 9,2.44771525 9,3 L9,8 C9,8.55228475 8.55228475,9 8,9 L3,9 C2.44771525,9 2,8.55228475 2,8 L2,3 C2,2.44771525 2.44771525,2 3,2 L8,2 Z M16.7134739,2.29025226 L18.4970049,4.07400489 L20.2805359,2.29025226 C20.6710602,1.89972797 21.3042252,1.89972797 21.6947495,2.29025226 L21.7037575,2.2992603 C22.0942818,2.6897846 22.0942818,3.32294957 21.7037575,3.71347387 L19.9200049,5.49700489 L21.7037575,7.28053591 C22.0942818,7.6710602 22.0942818,8.30422518 21.7037575,8.69474947 L21.6947495,8.70375751 C21.3042252,9.0942818 20.6710602,9.0942818 20.2805359,8.70375751 L18.4970049,6.92000489 L16.7134739,8.70375751 C16.3229496,9.0942818 15.6897846,9.0942818 15.2992603,8.70375751 L15.2902523,8.69474947 C14.899728,8.30422518 14.899728,7.6710602 15.2902523,7.28053591 L17.0740049,5.49700489 L15.2902523,3.71347387 C14.899728,3.32294957 14.899728,2.6897846 15.2902523,2.2992603 L15.2992603,2.29025226 C15.6897846,1.89972797 16.3229496,1.89972797 16.7134739,2.29025226 Z M7,4 L4,4 L4,7 L7,7 L7,4 Z M6,5 L6,6 L5,6 L5,5 L6,5 Z"/>
</svg>
