<?xml version="1.0" encoding="UTF-8"?>
<svg width="24px" height="24px" viewBox="0 0 24 24" version="1.1" xmlns="http://www.w3.org/2000/svg" xmlns:xlink="http://www.w3.org/1999/xlink">
    <title>1. Atoms / Icons / Profile</title>
    <g id="Icons" stroke="none" stroke-width="1" fill="none" fill-rule="evenodd">
        <g id="1.-Atoms-/-Icons-/-Profile" fill="#272932">
            <path d="M13.4341518,14.0625 C15.8720737,14.0625 18.168808,15.0312656 19.901308,16.7903906 C21.6253237,18.5408906 22.5747768,20.8515469 22.5747768,23.296875 C22.5747768,23.6851875 22.2599643,24 21.8716518,24 L21.8716518,24 L2.18415179,24 C1.79583929,24 1.48102679,23.6851875 1.48102679,23.296875 C1.48102679,20.8515469 2.43047991,18.5408906 4.15449554,16.7903906 C5.88699554,15.0312656 8.18377679,14.0625 10.6216518,14.0625 L10.6216518,14.0625 Z M12.0279018,0 C15.5172299,0 18.3560268,2.83879688 18.3560268,6.328125 C18.3560268,9.81745313 15.5172299,12.65625 12.0279018,12.65625 C8.53857366,12.65625 5.69977679,9.81745313 5.69977679,6.328125 C5.69977679,2.83879687 8.53857366,0 12.0279018,0 Z" id="Combined-Shape"></path>
        </g>
    </g>
</svg>