<?xml version="1.0" encoding="UTF-8"?>
<svg width="24px" height="24px" viewBox="0 0 24 24" version="1.1" xmlns="http://www.w3.org/2000/svg" xmlns:xlink="http://www.w3.org/1999/xlink">
    <title>1. Atoms / Icons / Documents / Xls</title>
    <g id="1.-Atoms-/-Icons-/-Documents-/-Xls" stroke="none" stroke-width="1" fill="none" fill-rule="evenodd">
        <path d="M14.585786,1 C15.1162238,1 15.6249404,1.2107172 16,1.58578578 L16,1.58578578 L19.4142281,5.00001153 C19.7892883,5.37508371 20,5.88378707 20,6.414214 L20,6.414214 L20,22 C20,22.5522847 19.5522847,23 19,23 L5,23 C4.44771525,23 4,22.5522847 4,22 L4,3 C4,1.8954305 4.8954305,1 6,1 L6,1 Z M12.666,3 L6,3 L6,17 L18,17 L18,9 L15,9 C13.7650299,9 12.754146,8.04057339 12.6720497,6.82642102 L12.6666667,6.66666667 L12.666,3 Z M9,15.5 C8.75454011,15.5 8.55039163,15.3231248 8.50805567,15.0898756 L8.5,15 L8.5,11 C8.5,10.7238576 8.72385763,10.5 9,10.5 L15,10.5 L15,10.5 C15.2454599,10.5 15.4496084,10.6768752 15.4919443,10.9101244 L15.5,11 L15.5,15 L15.5,15 C15.5,15.2454599 15.3231248,15.4496084 15.0898756,15.4919443 L15,15.5 L15,15.5 L9,15.5 L9,15.5 Z M11.5,13.5 L9.5,13.5 L9.5,14.5 L11.5,14.5 L11.5,13.5 Z M14.5,13.5 L12.5,13.5 L12.5,14.5 L14.5,14.5 L14.5,13.5 Z M11.5,11.5 L9.5,11.5 L9.5,12.5 L11.5,12.5 L11.5,11.5 Z M14.5,11.5 L12.5,11.5 L12.5,12.5 L14.5,12.5 L14.5,11.5 Z M14.666,3.081 L14.6666667,6.66666667 C14.6666667,6.82774985 14.7809272,6.9621458 14.9328217,6.99322786 L15,7 L18,7 L18,6.414214 L14.666,3.081 Z" id="Combined-Shape" fill="#272932"></path>
        <path d="M8.94612273,21.5 L9.54271364,20.5071023 L9.56544091,20.5071023 L10.1620318,21.5 L10.8694182,21.5 L9.96174773,20.0454545 L10.8495318,18.5909091 L10.1549295,18.5909091 L9.56544091,19.5823864 L9.54271364,19.5823864 L8.95606591,18.5909091 L8.25862273,18.5909091 L9.15208864,20.0454545 L8.24157727,21.5 L8.94612273,21.5 Z M13.0994652,21.5 L13.0994652,20.9928977 L11.8523061,20.9928977 L11.8523061,18.5909091 L11.2372492,18.5909091 L11.2372492,21.5 L13.0994652,21.5 Z M14.5851939,21.5411932 C14.8219364,21.5411932 15.0243511,21.5054451 15.1924383,21.4339489 C15.3605254,21.3624527 15.4893133,21.2616004 15.5788019,21.131392 C15.6682905,21.0011837 15.7135083,20.8470644 15.7144553,20.6690341 C15.7135083,20.547822 15.6914913,20.4403409 15.6484042,20.3465909 C15.605317,20.2528409 15.5449477,20.1714015 15.4672962,20.1022727 C15.3896447,20.0331439 15.2977886,19.9749053 15.191728,19.9275568 C15.0856674,19.8802083 14.9691902,19.8423295 14.8422962,19.8139205 L14.8422962,19.8139205 L14.5809326,19.7514205 C14.5174856,19.7372159 14.4578265,19.7199337 14.4019553,19.6995739 C14.3460841,19.679214 14.2968417,19.6550663 14.254228,19.6271307 C14.2116144,19.5991951 14.1782337,19.5658144 14.154086,19.5269886 C14.1299383,19.4881629 14.1188114,19.4427083 14.1207053,19.390625 C14.1207053,19.328125 14.1389345,19.2722538 14.1753928,19.2230114 C14.2118511,19.1737689 14.2646447,19.1351799 14.3337735,19.1072443 C14.4029023,19.0793087 14.4876561,19.0653409 14.5880348,19.0653409 C14.7357621,19.0653409 14.8527129,19.0970644 14.9388871,19.1605114 C15.0250614,19.2239583 15.0738303,19.3129735 15.0851939,19.4275568 L15.0851939,19.4275568 L15.6746826,19.4275568 C15.6718417,19.2542614 15.6254402,19.1017992 15.535478,18.9701705 C15.4455159,18.8385417 15.3198057,18.7357955 15.1583473,18.6619318 C14.996889,18.5880682 14.8082053,18.5511364 14.5922962,18.5511364 C14.380175,18.5511364 14.1907811,18.5880682 14.0241144,18.6619318 C13.8574477,18.7357955 13.7265292,18.8385417 13.6313587,18.9701705 C13.5361883,19.1017992 13.4890765,19.2556818 13.4900235,19.4318182 C13.4890765,19.6467803 13.5596258,19.8177083 13.7016712,19.9446023 C13.8437167,20.0714962 14.037372,20.1647727 14.2826371,20.2244318 L14.2826371,20.2244318 L14.5993985,20.3039773 C14.7054591,20.3295455 14.7951845,20.3579545 14.8685746,20.3892045 C14.9419648,20.4204545 14.997836,20.4583333 15.0361883,20.5028409 C15.0745405,20.5473485 15.0937167,20.6022727 15.0937167,20.6676136 C15.0937167,20.7376894 15.0724098,20.7997159 15.0297962,20.8536932 C14.9871826,20.9076705 14.9272867,20.9498106 14.8501087,20.9801136 C14.7729307,21.0104167 14.6822583,21.0255682 14.5780917,21.0255682 C14.4720311,21.0255682 14.3770973,21.009233 14.2932905,20.9765625 C14.2094837,20.943892 14.1427223,20.8951231 14.0930064,20.8302557 C14.0432905,20.7653883 14.0151182,20.6841856 14.0084894,20.5866477 L14.0084894,20.5866477 L13.4133189,20.5866477 C13.4180538,20.795928 13.4689534,20.9713542 13.5660178,21.1129261 C13.6630822,21.2544981 13.7984989,21.3612689 13.9722678,21.4332386 C14.1460367,21.5052083 14.3503455,21.5411932 14.5851939,21.5411932 Z" id="XLS" fill="#FFFFFF" fill-rule="nonzero"></path>
    </g>
</svg>