<?xml version="1.0" encoding="UTF-8"?>
<svg width="24px" height="24px" viewBox="0 0 24 24" version="1.1" xmlns="http://www.w3.org/2000/svg" xmlns:xlink="http://www.w3.org/1999/xlink">
    <title>1. Atoms / Icons / Documents / Xlsx</title>
    <g id="1.-Atoms-/-Icons-/-Documents-/-Xlsx" stroke="none" stroke-width="1" fill="none" fill-rule="evenodd">
        <path d="M14.585786,1 C15.1162238,1 15.6249404,1.2107172 16,1.58578578 L16,1.58578578 L19.4142281,5.00001153 C19.7892883,5.37508371 20,5.88378707 20,6.414214 L20,6.414214 L20,22 C20,22.5522847 19.5522847,23 19,23 L5,23 C4.44771525,23 4,22.5522847 4,22 L4,3 C4,1.8954305 4.8954305,1 6,1 L6,1 Z M12.666,3 L6,3 L6,17 L18,17 L18,9 L15,9 C13.7650299,9 12.754146,8.04057339 12.6720497,6.82642102 L12.6666667,6.66666667 L12.666,3 Z M9,15.5 C8.75454011,15.5 8.55039163,15.3231248 8.50805567,15.0898756 L8.5,15 L8.5,11 C8.5,10.7238576 8.72385763,10.5 9,10.5 L15,10.5 L15,10.5 C15.2454599,10.5 15.4496084,10.6768752 15.4919443,10.9101244 L15.5,11 L15.5,15 L15.5,15 C15.5,15.2454599 15.3231248,15.4496084 15.0898756,15.4919443 L15,15.5 L15,15.5 L9,15.5 L9,15.5 Z M11.5,13.5 L9.5,13.5 L9.5,14.5 L11.5,14.5 L11.5,13.5 Z M14.5,13.5 L12.5,13.5 L12.5,14.5 L14.5,14.5 L14.5,13.5 Z M11.5,11.5 L9.5,11.5 L9.5,12.5 L11.5,12.5 L11.5,11.5 Z M14.5,11.5 L12.5,11.5 L12.5,12.5 L14.5,12.5 L14.5,11.5 Z M14.666,3.081 L14.6666667,6.66666667 C14.6666667,6.82774985 14.7809272,6.9621458 14.9328217,6.99322786 L15,7 L18,7 L18,6.414214 L14.666,3.081 Z" id="Combined-Shape" fill="#272932"></path>
        <path d="M7.51717879,21.5 L8.1137697,20.5071023 L8.13649697,20.5071023 L8.73308788,21.5 L9.44047424,21.5 L8.53280379,20.0454545 L9.42058788,18.5909091 L8.72598561,18.5909091 L8.13649697,19.5823864 L8.1137697,19.5823864 L7.52712197,18.5909091 L6.82967879,18.5909091 L7.7231447,20.0454545 L6.81263333,21.5 L7.51717879,21.5 Z M11.6705212,21.5 L11.6705212,20.9928977 L10.4233621,20.9928977 L10.4233621,18.5909091 L9.8083053,18.5909091 L9.8083053,21.5 L11.6705212,21.5 Z M13.15625,21.5411932 C13.3929924,21.5411932 13.5954072,21.5054451 13.7634943,21.4339489 C13.9315814,21.3624527 14.0603693,21.2616004 14.149858,21.131392 C14.2393466,21.0011837 14.2845644,20.8470644 14.2855114,20.6690341 C14.2845644,20.547822 14.2625473,20.4403409 14.2194602,20.3465909 C14.1763731,20.2528409 14.1160038,20.1714015 14.0383523,20.1022727 C13.9607008,20.0331439 13.8688447,19.9749053 13.7627841,19.9275568 C13.6567235,19.8802083 13.5402462,19.8423295 13.4133523,19.8139205 L13.4133523,19.8139205 L13.1519886,19.7514205 C13.0885417,19.7372159 13.0288826,19.7199337 12.9730114,19.6995739 C12.9171402,19.679214 12.8678977,19.6550663 12.8252841,19.6271307 C12.7826705,19.5991951 12.7492898,19.5658144 12.725142,19.5269886 C12.7009943,19.4881629 12.6898674,19.4427083 12.6917614,19.390625 C12.6917614,19.328125 12.7099905,19.2722538 12.7464489,19.2230114 C12.7829072,19.1737689 12.8357008,19.1351799 12.9048295,19.1072443 C12.9739583,19.0793087 13.0587121,19.0653409 13.1590909,19.0653409 C13.3068182,19.0653409 13.4237689,19.0970644 13.5099432,19.1605114 C13.5961174,19.2239583 13.6448864,19.3129735 13.65625,19.4275568 L13.65625,19.4275568 L14.2457386,19.4275568 C14.2428977,19.2542614 14.1964962,19.1017992 14.1065341,18.9701705 C14.016572,18.8385417 13.8908617,18.7357955 13.7294034,18.6619318 C13.5679451,18.5880682 13.3792614,18.5511364 13.1633523,18.5511364 C12.9512311,18.5511364 12.7618371,18.5880682 12.5951705,18.6619318 C12.4285038,18.7357955 12.2975852,18.8385417 12.2024148,18.9701705 C12.1072443,19.1017992 12.0601326,19.2556818 12.0610795,19.4318182 C12.0601326,19.6467803 12.1306818,19.8177083 12.2727273,19.9446023 C12.4147727,20.0714962 12.608428,20.1647727 12.8536932,20.2244318 L12.8536932,20.2244318 L13.1704545,20.3039773 C13.2765152,20.3295455 13.3662405,20.3579545 13.4396307,20.3892045 C13.5130208,20.4204545 13.568892,20.4583333 13.6072443,20.5028409 C13.6455966,20.5473485 13.6647727,20.6022727 13.6647727,20.6676136 C13.6647727,20.7376894 13.6434659,20.7997159 13.6008523,20.8536932 C13.5582386,20.9076705 13.4983428,20.9498106 13.4211648,20.9801136 C13.3439867,21.0104167 13.2533144,21.0255682 13.1491477,21.0255682 C13.0430871,21.0255682 12.9481534,21.009233 12.8643466,20.9765625 C12.7805398,20.943892 12.7137784,20.8951231 12.6640625,20.8302557 C12.6143466,20.7653883 12.5861742,20.6841856 12.5795455,20.5866477 L12.5795455,20.5866477 L11.984375,20.5866477 C11.9891098,20.795928 12.0400095,20.9713542 12.1370739,21.1129261 C12.2341383,21.2544981 12.3695549,21.3612689 12.5433239,21.4332386 C12.7170928,21.5052083 12.9214015,21.5411932 13.15625,21.5411932 Z M15.2641379,21.5 L15.8607288,20.5071023 L15.8834561,20.5071023 L16.480047,21.5 L17.1874333,21.5 L16.2797629,20.0454545 L17.167547,18.5909091 L16.4729447,18.5909091 L15.8834561,19.5823864 L15.8607288,19.5823864 L15.2740811,18.5909091 L14.5766379,18.5909091 L15.4701038,20.0454545 L14.5595924,21.5 L15.2641379,21.5 Z" id="XLSX" fill="#FFFFFF" fill-rule="nonzero"></path>
    </g>
</svg>